<svg width="64" height="64" viewBox="0 0 64 64" fill="none" xmlns="http://www.w3.org/2000/svg">
<g clip-path="url(#clip0_725_4465)">
<path d="M32 64C49.6731 64 64 49.6731 64 32C64 14.3269 49.6731 0 32 0C14.3269 0 0 14.3269 0 32C0 49.6731 14.3269 64 32 64Z" fill="#C0FFFA"/>
<path d="M40.4077 46.9845L36.3141 47.6727C36.0685 47.714 35.8303 47.7327 35.594 47.7327H35.5921C34.3076 47.7327 33.0962 47.1663 32.2691 46.1763C31.4478 45.1918 31.1046 43.9016 31.3334 42.6359L32.0198 38.574C32.1605 37.7058 32.5936 36.8676 33.2369 36.2282L43.9556 25.5094L43.9537 15.0004C43.9537 13.3502 42.6036 12 40.9534 12H15.0003C13.3501 12 12 13.3502 12 15.0004V49.6248C12 51.2749 13.3501 52.6251 15.0003 52.6251H40.9534C42.6036 52.6251 43.9537 51.2749 43.9537 49.6248V44.5731L42.7536 45.7732C42.1179 46.407 41.2853 46.8382 40.4077 46.9845ZM19.8213 18.539H36.1322C36.9611 18.539 37.6325 19.2103 37.6325 20.0392C37.6325 20.8681 36.9611 21.5394 36.1322 21.5394H19.8213C18.9924 21.5394 18.3211 20.8681 18.3211 20.0392C18.3211 19.2122 18.9942 18.539 19.8213 18.539ZM19.8213 25.4701H36.1322C36.9611 25.4701 37.6325 26.1415 37.6325 26.9703C37.6325 27.7992 36.9611 28.4705 36.1322 28.4705H19.8213C18.9924 28.4705 18.3211 27.7992 18.3211 26.9703C18.3211 26.1433 18.9942 25.4701 19.8213 25.4701ZM19.8213 32.4026H27.9765C28.8054 32.4026 29.4767 33.0739 29.4767 33.9028C29.4767 34.7318 28.8054 35.4031 27.9765 35.4031H19.8213C18.9924 35.4031 18.3211 34.7318 18.3211 33.9028C18.3211 33.0739 18.9942 32.4026 19.8213 32.4026ZM28.8148 46.0843H19.8136C18.9847 46.0843 18.3134 45.413 18.3134 44.5842C18.3134 43.7553 18.9847 43.084 19.8136 43.084H28.8148C29.6436 43.084 30.3149 43.7553 30.3149 44.5842C30.3149 45.413 29.6436 46.0843 28.8148 46.0843Z" fill="#5BD2C8"/>
<path d="M53.2659 25.7366C51.8107 24.2664 49.4403 24.2664 47.9703 25.7366L46.4664 27.2405L51.7547 32.5289L53.2662 31.0174C54.7213 29.5623 54.721 27.1918 53.2659 25.7366Z" fill="#5BD2C8"/>
<path d="M35.3483 38.3556C35.1533 38.5506 35.0183 38.8056 34.9733 39.0757L34.2832 43.1712C34.1182 44.0863 34.9133 44.8663 35.8134 44.7164L39.9089 44.0263C40.1789 43.9813 40.434 43.8463 40.629 43.6512L49.6262 34.6539L44.3378 29.3656L35.3483 38.3556Z" fill="#5BD2C8"/>
</g>
<defs>
<clipPath id="clip0_725_4465">
<rect width="64" height="64" fill="white"/>
</clipPath>
</defs>
</svg>
