<svg width="64" height="64" viewBox="0 0 64 64" fill="none" xmlns="http://www.w3.org/2000/svg">
<g clip-path="url(#clip0_725_4465)">
<path d="M32 64C49.6731 64 64 49.6731 64 32C64 14.3269 49.6731 0 32 0C14.3269 0 0 14.3269 0 32C0 49.6731 14.3269 64 32 64Z" fill="#ABFCF5"/>
<path d="M42.4077 46.9845L38.3141 47.6727C38.0685 47.714 37.8303 47.7327 37.594 47.7327H37.5921C36.3076 47.7327 35.0962 47.1663 34.2691 46.1763C33.4478 45.1918 33.1046 43.9016 33.3334 42.6359L34.0198 38.574C34.1605 37.7058 34.5936 36.8676 35.2369 36.2282L45.9556 25.5094L45.9537 15.0004C45.9537 13.3502 44.6036 12 42.9534 12H17.0003C15.3501 12 14 13.3502 14 15.0004V49.6248C14 51.2749 15.3501 52.6251 17.0003 52.6251H42.9534C44.6036 52.6251 45.9537 51.2749 45.9537 49.6248V44.5731L44.7536 45.7732C44.1179 46.407 43.2853 46.8382 42.4077 46.9845ZM21.8213 18.539H38.1322C38.9611 18.539 39.6325 19.2103 39.6325 20.0392C39.6325 20.8681 38.9611 21.5394 38.1322 21.5394H21.8213C20.9924 21.5394 20.3211 20.8681 20.3211 20.0392C20.3211 19.2122 20.9942 18.539 21.8213 18.539ZM21.8213 25.4701H38.1322C38.9611 25.4701 39.6325 26.1415 39.6325 26.9703C39.6325 27.7992 38.9611 28.4705 38.1322 28.4705H21.8213C20.9924 28.4705 20.3211 27.7992 20.3211 26.9703C20.3211 26.1433 20.9942 25.4701 21.8213 25.4701ZM21.8213 32.4026H29.9765C30.8054 32.4026 31.4767 33.0739 31.4767 33.9028C31.4767 34.7318 30.8054 35.4031 29.9765 35.4031H21.8213C20.9924 35.4031 20.3211 34.7318 20.3211 33.9028C20.3211 33.0739 20.9942 32.4026 21.8213 32.4026ZM30.8148 46.0843H21.8136C20.9847 46.0843 20.3134 45.413 20.3134 44.5842C20.3134 43.7553 20.9847 43.084 21.8136 43.084H30.8148C31.6436 43.084 32.3149 43.7553 32.3149 44.5842C32.3149 45.413 31.6436 46.0843 30.8148 46.0843Z" fill="#21C1B4"/>
<path d="M55.2659 25.7366C53.8107 24.2664 51.4403 24.2664 49.9703 25.7366L48.4664 27.2405L53.7547 32.5289L55.2662 31.0174C56.7213 29.5623 56.721 27.1918 55.2659 25.7366Z" fill="#21C1B4"/>
<path d="M37.3483 38.3556C37.1533 38.5506 37.0183 38.8056 36.9733 39.0757L36.2832 43.1712C36.1182 44.0863 36.9133 44.8663 37.8134 44.7164L41.9089 44.0263C42.1789 43.9813 42.434 43.8463 42.629 43.6512L51.6262 34.6539L46.3378 29.3656L37.3483 38.3556Z" fill="#21C1B4"/>
</g>
<defs>
<clipPath id="clip0_725_4465">
<rect width="64" height="64" fill="white"/>
</clipPath>
</defs>
</svg>
