<svg width="24" height="24" viewBox="0 0 24 24" fill="none" xmlns="http://www.w3.org/2000/svg">
<path d="M21.6986 12.0687C21.6986 11.7374 21.967 11.4693 22.2982 11.4691C22.6296 11.4691 22.8988 11.7373 22.8988 12.0687C22.8988 17.9354 18.1425 22.6917 12.2757 22.6917C9.49056 22.6917 6.95494 21.6183 5.0609 19.8646L5.46812 19.4251L5.87535 18.9847C7.55634 20.5411 9.80457 21.4915 12.2757 21.4915C17.4798 21.4915 21.6986 17.2727 21.6986 12.0687Z" fill="black"/>
<path d="M1.65352 12.0684C1.65363 8.24124 3.67766 4.88753 6.71114 3.01855C6.99326 2.84474 7.36251 2.93272 7.53633 3.21484C7.71004 3.49684 7.62285 3.86614 7.34102 4.04004C4.64726 5.69969 2.85284 8.67486 2.85274 12.0684C2.85274 13.053 3.00403 14.0019 3.2834 14.8926L2.71114 15.0723L2.13789 15.251C1.82259 14.2456 1.65352 13.176 1.65352 12.0684Z" fill="black"/>
<path d="M21.1008 12.9209C21.1006 8.47735 17.8146 4.7989 13.5402 4.1875C12.8842 4.09363 12.4288 3.48612 12.5227 2.83008C12.6165 2.17405 13.224 1.71866 13.8801 1.8125C19.3198 2.59061 23.501 7.26623 23.5012 12.9209C23.5012 13.5836 22.9637 14.1211 22.301 14.1211C21.6383 14.121 21.1008 13.5836 21.1008 12.9209Z" fill="black"/>
<path d="M5.90039 17.2998C5.90029 16.1401 4.95954 15.2002 3.7998 15.2002C2.64016 15.2003 1.7003 16.1402 1.7002 17.2998C1.7002 18.4595 2.6401 19.4003 3.7998 19.4004V20.5996C1.97735 20.5995 0.5 19.1223 0.5 17.2998C0.500106 15.4774 1.97742 14.0001 3.7998 14C5.62228 14 7.0995 15.4774 7.09961 17.2998C7.09961 19.1223 5.62234 20.5996 3.7998 20.5996V19.4004C4.9596 19.4004 5.90039 18.4596 5.90039 17.2998Z" fill="black"/>
</svg>
