<svg width="24" height="24" viewBox="0 0 24 24" fill="none" xmlns="http://www.w3.org/2000/svg">
<mask id="mask0_550_3834" style="mask-type:alpha" maskUnits="userSpaceOnUse" x="0" y="0" width="24" height="24">
<rect width="24" height="24" fill="#D9D9D9"/>
</mask>
<g mask="url(#mask0_550_3834)">
<path d="M4.01803 12.0155C4.01803 13.5475 4.42828 14.9539 5.24878 16.2348C6.06928 17.5154 7.16803 18.4872 8.54503 19.15C8.73987 19.2552 8.87828 19.4049 8.96028 19.599C9.04245 19.7934 9.03287 19.9783 8.93153 20.1538C8.82387 20.3461 8.66295 20.4718 8.44878 20.5308C8.23478 20.5898 8.02837 20.5718 7.82953 20.477C6.1962 19.6923 4.90103 18.5382 3.94403 17.0145C2.98703 15.4907 2.50853 13.8211 2.50853 12.0058C2.50853 11.5276 2.5457 11.0561 2.62003 10.5913C2.69437 10.1266 2.80395 9.66668 2.94878 9.21152L1.91228 9.81552C1.73662 9.92702 1.54912 9.95485 1.34978 9.89902C1.15045 9.84335 1.00012 9.72768 0.898783 9.55202C0.79745 9.37635 0.7747 9.18627 0.830533 8.98177C0.886367 8.77727 1.00203 8.62435 1.17753 8.52302L4.07753 6.85002C4.2917 6.72952 4.52187 6.70193 4.76803 6.76727C5.0142 6.83277 5.19753 6.97252 5.31803 7.18652L6.99103 10.0615C7.09237 10.2372 7.11512 10.4273 7.05928 10.6318C7.00362 10.8363 6.88795 10.9892 6.71228 11.0905C6.53662 11.1917 6.34653 11.2144 6.14203 11.1588C5.93753 11.1029 5.7847 10.9872 5.68353 10.8115L4.63153 9.00002C4.42887 9.47952 4.27595 9.97218 4.17278 10.478C4.06962 10.9837 4.01803 11.4962 4.01803 12.0155ZM11.9988 4.00952C11.2065 4.00952 10.4337 4.1291 9.68053 4.36826C8.92737 4.60743 8.22512 4.95135 7.57378 5.40002C7.38778 5.51418 7.18937 5.55843 6.97853 5.53277C6.7677 5.5071 6.61162 5.40643 6.51028 5.23077C6.39228 5.02827 6.36537 4.81993 6.42953 4.60576C6.4937 4.39176 6.62387 4.2226 6.82003 4.09827C7.5892 3.5751 8.41028 3.17952 9.28328 2.91152C10.1565 2.64368 11.0585 2.50977 11.9893 2.50977C13.2995 2.50977 14.5475 2.7636 15.7333 3.27126C16.9193 3.77893 17.9649 4.51226 18.87 5.47126V4.24027C18.87 4.0276 18.9418 3.84943 19.0853 3.70576C19.229 3.56226 19.4071 3.49052 19.6198 3.49052C19.8326 3.49052 20.0109 3.56226 20.1545 3.70576C20.298 3.84943 20.3698 4.0276 20.3698 4.24027V7.58652C20.3698 7.84418 20.2836 8.05927 20.1113 8.23177C19.9388 8.4041 19.7237 8.49027 19.466 8.49027H16.1198C15.9071 8.49027 15.729 8.41852 15.5853 8.27502C15.4418 8.13135 15.37 7.9531 15.37 7.74027C15.37 7.5276 15.4418 7.34943 15.5853 7.20577C15.729 7.06227 15.9071 6.99052 16.1198 6.99052H18.22C17.4597 6.04052 16.5379 5.30618 15.4545 4.78752C14.3712 4.26885 13.2193 4.00952 11.9988 4.00952ZM18.0103 17.275C18.7335 16.4455 19.2569 15.5186 19.5805 14.4943C19.9042 13.4699 20.0084 12.4167 19.893 11.3345C19.8802 11.1153 19.9424 10.9198 20.0795 10.748C20.2167 10.5762 20.3917 10.4903 20.6045 10.4903C20.8302 10.4903 21.018 10.5762 21.168 10.748C21.318 10.9198 21.3995 11.1186 21.4123 11.3443C21.5213 12.5173 21.4065 13.664 21.068 14.7845C20.7295 15.905 20.1905 16.9307 19.4508 17.8615C18.7943 18.6962 18.0202 19.3994 17.1285 19.9713C16.2369 20.5429 15.2725 20.9532 14.2353 21.202L15.2258 21.775C15.4015 21.8764 15.5145 22.0293 15.565 22.2338C15.6157 22.4381 15.5905 22.6281 15.4893 22.8038C15.388 22.9794 15.2376 23.0926 15.0383 23.1433C14.839 23.1939 14.6515 23.1686 14.4758 23.0673L11.57 21.3845C11.3559 21.264 11.2161 21.0807 11.1508 20.8345C11.0855 20.5883 11.113 20.3583 11.2335 20.1443L12.9065 17.2635C13.0079 17.0879 13.1582 16.9747 13.3575 16.924C13.5569 16.8733 13.7444 16.8987 13.92 17C14.0957 17.1013 14.2114 17.2543 14.267 17.4588C14.3229 17.6631 14.3001 17.8531 14.1988 18.0288L13.0815 19.9308C14.0379 19.7974 14.9401 19.5049 15.7883 19.053C16.6363 18.601 17.377 18.0084 18.0103 17.275Z" fill="#1C1B1F"/>
</g>
</svg>
