<svg width="20" height="20" viewBox="0 0 20 20" fill="none" xmlns="http://www.w3.org/2000/svg">
<mask id="mask0_146_1109" style="mask-type:alpha" maskUnits="userSpaceOnUse" x="0" y="0" width="20" height="20">
<rect width="20" height="20" fill="#D9D9D9"/>
</mask>
<g mask="url(#mask0_146_1109)">
<path d="M10.2298 15.8333C10.3965 15.8194 10.5388 15.7534 10.6569 15.6354C10.775 15.5173 10.834 15.375 10.834 15.2083C10.834 15.0138 10.7715 14.8576 10.6465 14.7395C10.5215 14.6215 10.3618 14.5694 10.1673 14.5833C9.59787 14.625 8.99371 14.4687 8.35482 14.1145C7.71593 13.7604 7.31315 13.118 7.14648 12.1875C7.11871 12.0347 7.04579 11.9097 6.92773 11.8125C6.80968 11.7152 6.67426 11.6666 6.52148 11.6666C6.32704 11.6666 6.16732 11.7395 6.04232 11.8854C5.91732 12.0312 5.87565 12.2013 5.91732 12.3958C6.15343 13.6597 6.70898 14.5625 7.58398 15.1041C8.45898 15.6458 9.34093 15.8888 10.2298 15.8333ZM10.0007 18.3333C8.09787 18.3333 6.51107 17.6805 5.24023 16.375C3.9694 15.0694 3.33398 13.4444 3.33398 11.5C3.33398 10.1111 3.88607 8.60065 4.99023 6.96871C6.0944 5.33676 7.76454 3.5694 10.0007 1.66663C12.2368 3.5694 13.9069 5.33676 15.0111 6.96871C16.1152 8.60065 16.6673 10.1111 16.6673 11.5C16.6673 13.4444 16.0319 15.0694 14.7611 16.375C13.4902 17.6805 11.9034 18.3333 10.0007 18.3333ZM10.0007 16.6666C11.4451 16.6666 12.6395 16.177 13.584 15.1979C14.5284 14.2187 15.0007 12.9861 15.0007 11.5C15.0007 10.4861 14.5805 9.34024 13.7402 8.06246C12.9 6.78468 11.6534 5.38885 10.0007 3.87496C8.34787 5.38885 7.10135 6.78468 6.26107 8.06246C5.42079 9.34024 5.00065 10.4861 5.00065 11.5C5.00065 12.9861 5.47287 14.2187 6.41732 15.1979C7.36176 16.177 8.55621 16.6666 10.0007 16.6666Z" fill="#1C1B1F"/>
</g>
</svg>
