<svg width="24" height="24" viewBox="0 0 24 24" fill="none" xmlns="http://www.w3.org/2000/svg">
<mask id="mask0_727_4604" style="mask-type:alpha" maskUnits="userSpaceOnUse" x="0" y="0" width="24" height="24">
<rect width="24" height="24" fill="#D9D9D9"/>
</mask>
<g mask="url(#mask0_727_4604)">
<path d="M12.2463 18.8462C12.4206 18.8296 12.5642 18.7643 12.677 18.6505C12.7898 18.5367 12.8462 18.3994 12.8462 18.2387C12.8462 18.0514 12.7847 17.9029 12.6617 17.7932C12.5387 17.6836 12.3817 17.6371 12.1905 17.6537C11.5072 17.7037 10.7629 17.5035 9.95775 17.053C9.15258 16.6023 8.65 15.8187 8.45 14.702C8.41667 14.5315 8.34517 14.3975 8.2355 14.3C8.126 14.2025 7.99558 14.1537 7.84425 14.1537C7.66225 14.1537 7.51067 14.2221 7.3895 14.3587C7.26833 14.4952 7.2295 14.6705 7.273 14.8845C7.5435 16.3372 8.19742 17.3757 9.23475 18C10.2719 18.6243 11.2758 18.9064 12.2463 18.8462ZM11.9983 21.5C9.85708 21.5 8.07208 20.7644 6.64325 19.2932C5.21442 17.8221 4.5 15.991 4.5 13.8C4.5 12.2487 5.12083 10.5483 6.3625 8.69899C7.60417 6.84966 9.48333 4.83466 12 2.65399C14.5167 4.83466 16.3958 6.84966 17.6375 8.69899C18.8792 10.5483 19.5 12.2487 19.5 13.8C19.5 15.991 18.785 17.8221 17.355 19.2932C15.925 20.7644 14.1394 21.5 11.9983 21.5ZM12 20C13.7333 20 15.1667 19.4125 16.3 18.2375C17.4333 17.0625 18 15.5833 18 13.8C18 12.5833 17.4958 11.2083 16.4875 9.67499C15.4792 8.14166 13.9833 6.46666 12 4.64999C10.0167 6.46666 8.52083 8.14166 7.5125 9.67499C6.50417 11.2083 6 12.5833 6 13.8C6 15.5833 6.56667 17.0625 7.7 18.2375C8.83333 19.4125 10.2667 20 12 20Z" fill="#1C1B1F"/>
</g>
</svg>
