<svg width="24" height="24" viewBox="0 0 24 24" fill="none" xmlns="http://www.w3.org/2000/svg">
<mask id="mask0_18_366" style="mask-type:alpha" maskUnits="userSpaceOnUse" x="0" y="0" width="24" height="24">
<rect width="24" height="24" fill="#4B61C7"/>
</mask>
<g mask="url(#mask0_18_366)">
<path d="M4.53329 22.7001C3.9651 22.7001 3.48417 22.5033 3.0905 22.1096C2.69683 21.7159 2.5 21.235 2.5 20.6668V5.6124C2.5 5.0442 2.69683 4.56327 3.0905 4.16961C3.48417 3.77594 3.9651 3.57911 4.53329 3.57911H6.09053V2.06489C6.09053 1.81838 6.1731 1.61255 6.33825 1.4474C6.50341 1.28243 6.70924 1.19995 6.95575 1.19995C7.20245 1.19995 7.40828 1.28243 7.57325 1.4474C7.7384 1.61255 7.82097 1.81838 7.82097 2.06489V3.57911H16.3433V2.04352C16.3433 1.80414 16.424 1.60365 16.5854 1.44206C16.747 1.28065 16.9475 1.19995 17.1869 1.19995C17.4263 1.19995 17.6267 1.28065 17.7881 1.44206C17.9497 1.60365 18.0304 1.80414 18.0304 2.04352V3.57911H19.5877C20.1559 3.57911 20.6368 3.77594 21.0305 4.16961C21.4241 4.56327 21.621 5.0442 21.621 5.6124V20.6668C21.621 21.235 21.4241 21.7159 21.0305 22.1096C20.6368 22.5033 20.1559 22.7001 19.5877 22.7001H4.53329ZM4.53329 21.0129H19.5877C19.6743 21.0129 19.7536 20.9769 19.8256 20.9047C19.8977 20.8327 19.9338 20.7534 19.9338 20.6668V10.1115H4.18714V20.6668C4.18714 20.7534 4.22323 20.8327 4.2954 20.9047C4.36739 20.9769 4.44668 21.0129 4.53329 21.0129ZM4.18714 8.42431H19.9338V5.6124C19.9338 5.52579 19.8977 5.44649 19.8256 5.37451C19.7536 5.30234 19.6743 5.26625 19.5877 5.26625H4.53329C4.44668 5.26625 4.36739 5.30234 4.2954 5.37451C4.22323 5.44649 4.18714 5.52579 4.18714 5.6124V8.42431Z" fill="#4B61C7"/>
<path d="M8.80005 13.25C8.80005 13.9404 8.2404 14.5 7.55005 14.5C6.85969 14.5 6.30005 13.9404 6.30005 13.25C6.30005 12.5596 6.85969 12 7.55005 12C8.2404 12 8.80005 12.5596 8.80005 13.25Z" fill="#FA3291"/>
<path d="M13.3 13.25C13.3 13.9404 12.7404 14.5 12.05 14.5C11.3597 14.5 10.8 13.9404 10.8 13.25C10.8 12.5596 11.3597 12 12.05 12C12.7404 12 13.3 12.5596 13.3 13.25Z" fill="#FA3291"/>
<path d="M17.8 13.25C17.8 13.9404 17.2404 14.5 16.55 14.5C15.8597 14.5 15.3 13.9404 15.3 13.25C15.3 12.5596 15.8597 12 16.55 12C17.2404 12 17.8 12.5596 17.8 13.25Z" fill="#FA3291"/>
<path d="M8.80005 17.75C8.80005 18.4404 8.2404 19 7.55005 19C6.85969 19 6.30005 18.4404 6.30005 17.75C6.30005 17.0596 6.85969 16.5 7.55005 16.5C8.2404 16.5 8.80005 17.0596 8.80005 17.75Z" fill="#FA3291"/>
<path d="M13.3 17.75C13.3 18.4404 12.7404 19 12.05 19C11.3597 19 10.8 18.4404 10.8 17.75C10.8 17.0596 11.3597 16.5 12.05 16.5C12.7404 16.5 13.3 17.0596 13.3 17.75Z" fill="#FA3291"/>
<path d="M17.8 17.75C17.8 18.4404 17.2404 19 16.55 19C15.8597 19 15.3 18.4404 15.3 17.75C15.3 17.0596 15.8597 16.5 16.55 16.5C17.2404 16.5 17.8 17.0596 17.8 17.75Z" fill="#FA3291"/>
</g>
</svg>
