<svg width="24" height="24" viewBox="0 0 24 24" fill="none" xmlns="http://www.w3.org/2000/svg">
<path d="M21.3983 12.0687C21.3983 11.6268 21.7572 11.2689 22.1991 11.2689C22.6407 11.2691 22.9989 11.627 22.9989 12.0687C22.9989 18.0459 18.1528 22.8909 12.1756 22.8909C8.96784 22.8909 6.08499 21.4944 4.10432 19.2786L5.29768 18.2122C6.98765 20.1028 9.44223 21.2913 12.1756 21.2913C17.2692 21.2913 21.3983 17.1622 21.3983 12.0687Z" fill="currentColor"/>
<path d="M1.35332 12.0684C1.35342 8.16896 3.41652 4.7525 6.50664 2.84864C6.88276 2.61699 7.37547 2.73332 7.60722 3.10938C7.83894 3.48547 7.7215 3.97815 7.3455 4.20997C4.70837 5.83473 2.95303 8.74714 2.95293 12.0684C2.95293 13.0323 3.10054 13.9606 3.37383 14.832L2.61113 15.0723L1.84746 15.3115C1.52605 14.2868 1.35332 13.1967 1.35332 12.0684Z" fill="currentColor"/>
<path d="M20.3288 12.9788C20.423 8.76353 17.3839 5.20417 13.3422 4.53328C12.4433 4.38411 11.8349 3.5341 11.9839 2.63523C12.1331 1.73635 12.9831 1.12796 13.882 1.27697C19.5206 2.21272 23.7602 7.17239 23.6287 13.0527C23.6083 13.9637 22.8529 14.6861 21.9418 14.6657C21.0308 14.6453 20.3084 13.8899 20.3288 12.9788Z" fill="currentColor"/>
<path d="M5.39999 17.2998C5.39989 16.361 4.63862 15.5996 3.6998 15.5996C2.76107 15.5997 1.99971 16.3611 1.9996 17.2998C1.9996 18.2386 2.761 18.9999 3.6998 19V20.5996C1.87735 20.5995 0.399994 19.1223 0.399994 17.2998C0.400099 15.4774 1.87741 14.0001 3.6998 14C5.52227 14 6.9995 15.4774 6.9996 17.2998C6.9996 19.1224 5.52234 20.5996 3.6998 20.5996V19C4.63868 19 5.39999 18.2387 5.39999 17.2998Z" fill="currentColor"/>
</svg>
