<svg width="24" height="24" viewBox="0 0 24 24" fill="none" xmlns="http://www.w3.org/2000/svg">
<mask id="mask0_18_498" style="mask-type:alpha" maskUnits="userSpaceOnUse" x="0" y="0" width="24" height="24">
<rect width="24" height="24" fill="currentColor"/>
</mask>
<g mask="url(#mask0_18_498)">
<path d="M21.2239 11.9638C21.2239 11.4805 21.6156 11.0888 22.0989 11.0888C22.5819 11.089 22.9739 11.4807 22.9739 11.9638C22.9739 17.9824 18.0941 22.8612 12.0754 22.8612C8.84543 22.8612 5.94277 21.4545 3.94849 19.2235L5.25317 18.0575C6.92951 19.9328 9.36429 21.1112 12.0754 21.1112C17.1276 21.1112 21.2239 17.0159 21.2239 11.9638Z" fill="currentColor"/>
<path d="M1.17822 11.9635C1.17833 8.03704 3.25541 4.59627 6.3667 2.67931C6.77811 2.42584 7.3173 2.55406 7.5708 2.96545C7.82429 3.37688 7.6961 3.91606 7.28467 4.16955C4.66891 5.78126 2.92833 8.66948 2.92822 11.9635C2.92822 12.9198 3.07513 13.8404 3.34619 14.7047L2.51123 14.9674L1.67627 15.2291C1.35261 14.1972 1.17822 13.0996 1.17822 11.9635Z" fill="currentColor"/>
<path d="M20.1293 12.8719C20.2224 8.7069 17.2189 5.18954 13.2254 4.52681C12.2721 4.36847 11.6275 3.467 11.7857 2.51362C11.9441 1.56029 12.8456 0.915715 13.7989 1.07393C19.4859 2.01781 23.761 7.01949 23.6284 12.9502C23.6068 13.9164 22.806 14.6822 21.8397 14.6606C20.8735 14.6389 20.1077 13.8381 20.1293 12.8719Z" fill="#FA3291"/>
<path d="M5.2501 17.2447C5.24989 16.3612 4.53306 15.6451 3.64956 15.6451C2.76624 15.6453 2.05021 16.3613 2.05 17.2447C2.05 18.1282 2.76611 18.845 3.64956 18.8452V20.5952L3.47769 20.5903C1.70765 20.5006 0.300049 19.037 0.300049 17.2447C0.30026 15.3949 1.79977 13.8954 3.64956 13.8952C5.49953 13.8952 6.99984 15.3947 7.00005 17.2447L6.99517 17.4175C6.9054 19.1875 5.44182 20.5952 3.64956 20.5952V18.8452C4.53319 18.8452 5.2501 18.1283 5.2501 17.2447Z" fill="currentColor"/>
</g>
</svg>
