<svg width="24" height="24" viewBox="0 0 24 24" fill="none" xmlns="http://www.w3.org/2000/svg">
<mask id="mask0_20_592" style="mask-type:alpha" maskUnits="userSpaceOnUse" x="0" y="0" width="24" height="24">
<rect width="24" height="24" fill="currentColor"/>
</mask>
<g mask="url(#mask0_20_592)">
<path d="M11.9983 21.5C9.85708 21.5 8.07208 20.7646 6.64325 19.2937C5.21442 17.8227 4.5 15.992 4.5 13.8015C4.5 12.8313 4.71992 11.8579 5.15975 10.8812C5.59942 9.90473 6.14908 8.96756 6.80875 8.06973C7.46825 7.1719 8.18167 6.3274 8.949 5.53623C9.71633 4.74506 10.4288 4.05673 11.0865 3.47123C11.2135 3.35073 11.3561 3.26131 11.5143 3.20298C11.6724 3.14465 11.8343 3.11548 12 3.11548C12.1657 3.11548 12.3276 3.14465 12.4857 3.20298C12.6439 3.26131 12.7865 3.35073 12.9135 3.47123C13.5712 4.05673 14.2837 4.74506 15.051 5.53623C15.8183 6.3274 16.5318 7.1719 17.1913 8.06973C17.8509 8.96756 18.4006 9.90473 18.8403 10.8812C19.2801 11.8579 19.5 12.8313 19.5 13.8015C19.5 15.992 18.785 17.8227 17.355 19.2937C15.925 20.7646 14.1394 21.5 11.9983 21.5ZM12 20C13.7333 20 15.1667 19.4125 16.3 18.2375C17.4333 17.0625 18 15.5833 18 13.8C18 12.5833 17.4958 11.2083 16.4875 9.67498C15.4792 8.14165 13.9833 6.46665 12 4.64998C10.0167 6.46665 8.52083 8.14165 7.5125 9.67498C6.50417 11.2083 6 12.5833 6 13.8C6 15.5833 6.56667 17.0625 7.7 18.2375C8.83333 19.4125 10.2667 20 12 20Z" fill="currentColor"/>
<path d="M12.5655 18.7178C12.4517 18.8306 12.3075 18.8946 12.133 18.9097C11.162 18.961 10.1608 18.6698 9.12933 18.0361C8.0977 17.4024 7.45323 16.358 7.19591 14.903C7.15436 14.6886 7.19478 14.5137 7.31717 14.3783C7.43958 14.2427 7.59177 14.1758 7.77377 14.1774C7.92509 14.1788 8.05506 14.2287 8.16367 14.3272C8.27245 14.4257 8.34273 14.5604 8.37452 14.7312C8.56439 15.8496 9.05984 16.6378 9.86089 17.0957C10.6619 17.5535 11.4043 17.7605 12.0881 17.7167C12.2794 17.7018 12.4361 17.7497 12.5581 17.8605C12.6801 17.9712 12.7402 18.1203 12.7385 18.3076C12.7371 18.4683 12.6794 18.605 12.5655 18.7178Z" fill="#FA3291"/>
</g>
</svg>
