<svg width="60" height="60" viewBox="0 0 60 60" fill="none" xmlns="http://www.w3.org/2000/svg">
<path d="M28.3178 2.96507C20.5 12.5 18 20 19.5 28L24 31C22.457 24.5343 23.2495 16.1132 29.9274 7.72077C34.6169 13.579 38.6084 21.0853 37.5 30L41.5 27.5C42.5 17 37.2978 9.30294 31.5073 2.95195L29.9053 1.19385L28.3178 2.96507Z" fill="#FA3291"/>
<path d="M3.11621 23.2556C16.2081 23.9665 24.4975 29.6332 29.1162 36.6062C33.6574 43.4622 34.5775 51.4859 33.1582 56.8875C32.7339 58.5016 32.5 58.5 29.6943 59.2273C18.8911 57.9782 11.7494 52.6623 7.29004 46.0339C2.88049 39.4795 1.14232 31.7291 0.852539 25.5017L0.742188 23.1267L3.11621 23.2556ZM5.33984 27.7537C5.9027 32.8979 7.54382 38.7081 10.8574 43.6335C14.5281 49.0897 20.2941 53.5394 29.2109 54.8279C29.9746 50.6357 29.1411 44.4288 25.5322 38.9802C21.9844 33.6239 15.6884 28.9128 5.33984 27.7537Z" fill="currentColor"/>
<path d="M56.9063 23.2556C40.8376 24.1353 34.5 30.5 30 38.5L32.5 43.8259C35.3696 36.7975 41.9193 29.2069 54.6817 27.7546C54.1027 32.9724 52.3864 38.8681 48.9454 43.8259C45.0049 49.5033 38.7495 54.0453 29.0069 54.95L29.4043 59.2312C40.4776 58.203 47.8526 52.9415 52.4776 46.2781C57.0498 39.6904 58.8789 31.8282 59.1709 25.5017L59.2813 23.1257L56.9063 23.2556Z" fill="currentColor"/>
</svg>
