<svg width="24" height="24" viewBox="0 0 24 24" fill="none" xmlns="http://www.w3.org/2000/svg">
<mask id="mask0_733_32" style="mask-type:alpha" maskUnits="userSpaceOnUse" x="0" y="0" width="24" height="24">
<rect x="0.5" y="0.5" width="23" height="23"/>
</mask>
<g mask="url(#mask0_733_32)">
<path d="M12.2051 2.0127L12.7295 2.02637C18.1147 2.29952 22.3975 6.75199 22.3975 12.2051L22.3838 12.7305C22.1105 18.1111 17.6648 22.3898 12.2178 22.3965V20.6221C16.8606 20.6151 20.623 16.8495 20.623 12.2051C20.623 7.55631 16.8538 3.78719 12.2051 3.78711C7.55626 3.78711 3.78711 7.55626 3.78711 12.2051C3.78719 16.8496 7.54941 20.6153 12.1924 20.6221V22.3965L11.6807 22.3838C6.63197 22.1278 2.55268 18.1983 2.0625 13.2148L2.02637 12.7295L2.0127 12.2051C2.0127 6.57596 6.57596 2.0127 12.2051 2.0127ZM12.25 11.2119C12.5915 11.2119 12.8775 11.3279 13.1084 11.5586C13.3388 11.7892 13.454 12.0747 13.4541 12.416V16.7822C13.4541 17.1236 13.339 17.4097 13.1084 17.6406C12.8775 17.8713 12.5915 17.9873 12.25 17.9873C11.9085 17.9873 11.6225 17.8713 11.3916 17.6406C11.161 17.4097 11.0459 17.1236 11.0459 16.7822V12.416C11.046 12.0747 11.1612 11.7892 11.3916 11.5586C11.6225 11.3279 11.9085 11.2119 12.25 11.2119ZM12.25 6.6123C12.6009 6.6123 12.8946 6.73086 13.1318 6.96777C13.3688 7.20492 13.4872 7.49879 13.4873 7.84961C13.4873 8.2005 13.3688 8.49425 13.1318 8.73145C12.8946 8.96849 12.601 9.08789 12.25 9.08789C11.899 9.08789 11.6054 8.96849 11.3682 8.73145C11.1312 8.49425 11.0127 8.2005 11.0127 7.84961C11.0128 7.49879 11.1312 7.20492 11.3682 6.96777C11.6054 6.73086 11.8991 6.6123 12.25 6.6123Z" fill="currentColor"/>
</g>
</svg>
