<svg width="24" height="24" viewBox="0 0 24 24" fill="none" xmlns="http://www.w3.org/2000/svg">
<mask id="mask0_18_537" style="mask-type:alpha" maskUnits="userSpaceOnUse" x="0" y="0" width="24" height="24">
<rect width="24" height="24" fill="currentColor"/>
</mask>
<g mask="url(#mask0_18_537)">
<path d="M21.4302 5.00586C22.0018 5.00397 22.3706 5.50979 22.3452 5.98243C22.1179 10.2076 20.3677 12.8215 18.188 14.3516C16.0504 15.8521 13.5893 16.25 11.9751 16.25H11.1001V11.7959L11.1138 11.7188C11.5834 9.13603 13.5254 7.54417 15.5474 6.57911C17.5754 5.61116 19.8444 5.1895 21.313 5.0127L21.4302 5.00586ZM20.5073 6.89844C19.235 7.11466 17.6855 7.49754 16.3013 8.15821C14.5353 9.0011 13.1953 10.215 12.8501 11.9688V14.4561C14.1474 14.3307 15.7686 13.9119 17.1831 12.919C18.735 11.8294 20.1125 9.99904 20.5073 6.89844Z" fill="#FA3291"/>
<path d="M11.1001 21.875V13.2207C7.51776 12.9878 5.14716 11.3268 3.67726 9.2168C2.12299 6.98549 1.60963 4.31033 1.60011 2.42872C1.5973 1.86848 2.06306 1.49853 2.52882 1.5L3.19874 1.51661C9.98003 1.8391 12.4733 6.67549 12.8413 9.25098L12.8501 9.3125V21.875C12.8501 22.3583 12.4584 22.75 11.9751 22.75C11.4919 22.75 11.1001 22.3583 11.1001 21.875ZM3.39406 3.28418C3.534 4.8031 4.0294 6.66036 5.11281 8.21582C6.271 9.87854 8.12841 11.2429 11.1001 11.4668V9.44629C10.8017 7.52702 8.90051 3.6724 3.39406 3.28418Z" fill="currentColor"/>
</g>
</svg>
