<svg width="24" height="24" viewBox="0 0 24 24" fill="none" xmlns="http://www.w3.org/2000/svg">
<mask id="mask0_19_548" style="mask-type:alpha" maskUnits="userSpaceOnUse" x="0" y="0" width="24" height="24">
<rect width="24" height="24" fill="currentColor"/>
</mask>
<g mask="url(#mask0_19_548)">
<path d="M12 18C9.56667 18 7.35 17.3208 5.35 15.9625C3.35 14.6042 1.9 12.7833 1 10.5C1.9 8.21667 3.35 6.39583 5.35 5.0375C7.35 3.67917 9.56667 3 12 3C14.4333 3 16.65 3.67917 18.65 5.0375C20.65 6.39583 22.1 8.21667 23 10.5C22.9 10.75 22.7958 10.9917 22.6875 11.225C22.5792 11.4583 22.4583 11.6833 22.325 11.9L20.75 10.425C19.9 8.75833 18.6958 7.4375 17.1375 6.4625C15.5792 5.4875 13.8667 5 12 5C10.1167 5 8.3875 5.49583 6.8125 6.4875C5.2375 7.47917 4.03333 8.81667 3.2 10.5C4.03333 12.1833 5.2375 13.5208 6.8125 14.5125C8.3875 15.5042 10.1167 16 12 16C12.1833 16 12.3625 15.9958 12.5375 15.9875C12.7125 15.9792 12.8917 15.9583 13.075 15.925C13.0083 16.2583 12.975 16.6 12.975 16.95C12.975 17.3 13.0083 17.6417 13.075 17.975C12.8917 17.9917 12.7125 18 12.5375 18H12ZM12 15C10.75 15 9.6875 14.5625 8.8125 13.6875C7.9375 12.8125 7.5 11.75 7.5 10.5C7.5 9.25 7.9375 8.1875 8.8125 7.3125C9.6875 6.4375 10.75 6 12 6C13.25 6 14.3125 6.4375 15.1875 7.3125C16.0625 8.1875 16.5 9.25 16.5 10.5C16.5 10.6167 16.4958 10.7292 16.4875 10.8375C16.4792 10.9458 16.4667 11.0583 16.45 11.175L14.9 12.6C14.5833 12.9167 14.3 13.2542 14.05 13.6125C13.8 13.9708 13.5917 14.35 13.425 14.75C13.1917 14.8333 12.9583 14.8958 12.725 14.9375C12.4917 14.9792 12.25 15 12 15ZM12 13.2C12.75 13.2 13.3875 12.9375 13.9125 12.4125C14.4375 11.8875 14.7 11.25 14.7 10.5C14.7 9.75 14.4375 9.1125 13.9125 8.5875C13.3875 8.0625 12.75 7.8 12 7.8C11.25 7.8 10.6125 8.0625 10.0875 8.5875C9.5625 9.1125 9.3 9.75 9.3 10.5C9.3 11.25 9.5625 11.8875 10.0875 12.4125C10.6125 12.9375 11.25 13.2 12 13.2Z" fill="currentColor"/>
<path d="M19.0001 21C17.8834 21 16.9376 20.6083 16.1626 19.825C15.3876 19.0417 14.9918 18.0917 14.9751 16.975C14.9751 16.425 15.0918 15.9 15.3251 15.4C15.5584 14.9 15.8751 14.4583 16.2751 14.075L19.0001 11.5L21.7001 14.075C22.1001 14.4583 22.4126 14.8958 22.6376 15.3875C22.8626 15.8792 22.9834 16.4 23.0001 16.95C23.0001 18.0833 22.6084 19.0417 21.8251 19.825C21.0418 20.6083 20.1001 21 19.0001 21ZM19.0001 19C19.5501 19 20.0209 18.8 20.4126 18.4C20.8043 18 20.9918 17.5167 20.9751 16.95C20.9751 16.6667 20.9126 16.4 20.7876 16.15C20.6626 15.9 20.5001 15.6833 20.3001 15.5L19.0001 14.25L17.6751 15.5C17.4751 15.6833 17.3084 15.9042 17.1751 16.1625C17.0418 16.4208 16.9834 16.6917 17.0001 16.975C17.0001 17.5417 17.1918 18.0208 17.5751 18.4125C17.9584 18.8042 18.4334 19 19.0001 19Z" fill="#FA3291"/>
</g>
</svg>
