<svg width="60" height="60" viewBox="0 0 60 60" fill="none" xmlns="http://www.w3.org/2000/svg">
<path d="M0 29.9798C0 15.4375 11.0399 3.40018 24.9012 2.15857L24.9851 6.14097C13.29 7.18854 4.00144 17.4043 4.00144 29.9798C4.00144 42.5553 13.29 52.771 24.9851 53.8186L24.9012 57.801C11.0399 56.5594 2.85088e-06 44.522 0 29.9798Z" fill="#FA3291"/>
<path d="M53.3927 24.1356C52.3349 24.4548 51.2185 23.8562 50.8993 22.7984C48.15 13.689 40.3329 6.97992 30.9682 6.1411V2.15869C42.0649 3.15266 51.54 11.0726 54.7299 21.6421C55.0492 22.6999 54.4505 23.8163 53.3927 24.1356Z" fill="#4B61C7"/>
<path d="M24.1504 22.4215C24.1504 21.3165 23.2544 20.4205 22.1494 20.4205C21.0444 20.4205 20.1484 21.3165 20.1484 22.4215C20.1484 23.5968 19.0385 24.8668 17.2588 24.8668C15.479 24.8668 14.3691 23.5969 14.3691 22.4215C14.3691 21.3166 13.473 20.4206 12.3681 20.4205C11.2632 20.4205 10.3672 21.3165 10.3672 22.4215C10.3672 26.1572 13.6364 28.8688 17.2588 28.8688C20.8811 28.8687 24.1504 26.1572 24.1504 22.4215Z" fill="#FA3291"/>
<path d="M45.4917 22.4215C45.4917 21.3165 44.5957 20.4205 43.4907 20.4205C42.3857 20.4205 41.4897 21.3165 41.4897 22.4215C41.4897 23.5968 40.3798 24.8668 38.6001 24.8668C36.8203 24.8668 35.7104 23.5969 35.7104 22.4215C35.7104 21.3166 34.8144 20.4206 33.7095 20.4205C32.6045 20.4205 31.7085 21.3165 31.7085 22.4215C31.7085 26.1572 34.9778 28.8688 38.6001 28.8688C42.2224 28.8687 45.4917 26.1572 45.4917 22.4215Z" fill="#4B61C7"/>
<path d="M12.6334 36.2913C13.5677 35.7012 14.8031 35.9801 15.3932 36.9143C16.1733 38.1494 17.4018 39.6428 19.2457 40.6877C21.0527 41.7116 23.5866 42.3842 27.1559 41.7893L27.8141 45.7366C23.3806 46.4755 19.9123 45.6647 17.2731 44.1692C14.671 42.6947 13.0088 40.6318 12.0104 39.051C11.4204 38.1168 11.6992 36.8813 12.6334 36.2913Z" fill="#FA3291"/>
<path d="M30.9682 53.8187C36.6459 53.3102 41.7469 50.6496 45.5037 46.5991C46.2551 45.789 47.521 45.7413 48.3311 46.4927C49.1413 47.2441 49.189 48.51 48.4376 49.3201C44.0474 54.0535 37.6882 57.1992 30.9682 57.8011V53.8187Z" fill="#4B61C7"/>
<path d="M51.7228 44.3812C49.708 44.3812 47.983 43.6843 46.5478 42.2905C45.1125 40.8966 44.3949 39.1923 44.3949 37.1775C44.3949 36.2006 44.5812 35.2664 44.9538 34.3749C45.3264 33.4832 45.8646 32.6993 46.5685 32.0231L51.7228 26.9515L56.8772 32.0231C57.581 32.6993 58.1192 33.4832 58.4918 34.3749C58.8644 35.2664 59.0507 36.2006 59.0507 37.1775C59.0507 39.1923 58.3331 40.8966 56.8979 42.2905C55.4627 43.6843 53.7377 44.3812 51.7228 44.3812ZM55.0556 40.4481C55.9802 39.5649 56.4425 38.4727 56.4425 37.1715C56.4425 36.5538 56.3217 35.9657 56.0802 35.4072C55.8387 34.8486 55.496 34.3584 55.0521 33.9366L51.7228 30.6155L48.3936 33.9366C47.9496 34.3584 47.6069 34.8486 47.3654 35.4072C47.1239 35.9657 47.0032 36.5538 47.0032 37.1715C47.0032 38.4727 47.4655 39.5649 48.3901 40.4481C49.3147 41.3313 50.4256 41.7729 51.7228 41.7729C53.02 41.7729 54.131 41.3313 55.0556 40.4481Z" fill="#4B61C7"/>
<path d="M59.0507 37.1775C59.0507 36.2006 58.8644 35.2664 58.4918 34.3749C58.1192 33.4832 57.581 32.6993 56.8772 32.0231L51.7228 26.9515L46.5685 32.0231C45.8646 32.6993 45.3264 33.4832 44.9538 34.3749C44.5812 35.2664 44.3949 36.2006 44.3949 37.1775C44.3949 39.1923 45.1125 40.8966 46.5478 42.2905C47.8932 43.5971 49.4933 44.2917 51.348 44.3734L51.7228 44.3812C53.7377 44.3812 55.4627 43.6843 56.8979 42.2905C58.2435 40.9836 58.9584 39.4039 59.0424 37.5511L59.0507 37.1775ZM55.9428 37.1713C55.9427 36.6209 55.8354 36.1006 55.6215 35.6058C55.4069 35.1095 55.1028 34.6748 54.7074 34.2992L54.6986 34.2904L51.7221 31.3207L48.5941 34.4427C48.2682 34.7843 48.0124 35.1715 47.8246 35.6058C47.6107 36.1006 47.5033 36.6209 47.5033 37.1713C47.5033 38.3386 47.9118 39.2993 48.7357 40.0863C49.5658 40.8792 50.5524 41.2728 51.723 41.2728L51.7228 41.7729L51.4818 41.7679C50.3672 41.7197 49.3952 41.3332 48.5658 40.6088L48.3901 40.4481C47.5234 39.6202 47.0625 38.6087 47.0082 37.4135L47.0032 37.1715C47.0032 36.6309 47.0957 36.1128 47.2807 35.6176L47.3654 35.4072C47.5767 34.9184 47.8655 34.482 48.2318 34.098L48.3936 33.9366L51.7228 30.6155L55.0521 33.9366C55.496 34.3584 55.8387 34.8486 56.0802 35.4072C56.3217 35.9657 56.4425 36.5538 56.4425 37.1715L56.4369 37.4135C56.3826 38.6087 55.9223 39.6202 55.0556 40.4481L54.8803 40.6088C53.9917 41.385 52.9389 41.7729 51.7228 41.7729L51.723 41.2728C52.8936 41.2728 53.8803 40.8792 54.7104 40.0863C55.5341 39.2993 55.9428 38.3385 55.9428 37.1713ZM59.5512 37.1771C59.5512 39.3259 58.7792 41.1601 57.2465 42.6488C55.7173 44.1339 53.8668 44.8812 51.723 44.8812C49.5792 44.8812 47.7289 44.134 46.1996 42.6488C44.6667 41.1601 43.8949 39.326 43.8949 37.1771C43.895 36.1349 44.0942 35.1352 44.4926 34.182C44.8919 33.2266 45.4694 32.3856 46.2221 31.6625L51.723 26.2504L57.224 31.6625L57.4975 31.9388C58.1179 32.5974 58.6041 33.3458 58.9535 34.182C59.3519 35.1351 59.5511 36.1349 59.5512 37.1771Z" fill="#4B61C7"/>
<path d="M29.9237 59.9844H25.9237L25.9237 0L29.9237 1.74846e-07L29.9237 59.9844Z" fill="#4B61C7"/>
<path d="M29.9 39.9837C32.2189 39.9643 33.9931 40.5363 35.3546 41.3078C37.1986 42.3528 38.4271 43.8461 39.2072 45.0813C39.7972 46.0155 41.0327 46.2944 41.9669 45.7043C42.9011 45.1142 43.18 43.8788 42.59 42.9446C41.5916 41.3638 39.9294 39.3009 37.3273 37.8264C35.3407 36.7007 32.8843 35.9629 29.9 35.9821V39.9837Z" fill="#4B61C7"/>
</svg>
