<svg width="60" height="60" viewBox="0 0 60 60" fill="none" xmlns="http://www.w3.org/2000/svg">
<g clip-path="url(#clip0_917_4315)">
<path d="M0.300003 29.9798C0.300003 15.4375 11.3399 3.40018 25.2012 2.15857L25.2851 6.14097C13.59 7.18854 4.30144 17.4043 4.30144 29.9798C4.30145 42.5553 13.59 52.771 25.2851 53.8186L25.2012 57.801C11.3399 56.5594 0.300006 44.522 0.300003 29.9798Z" fill="#F93090"/>
<path d="M53.6927 24.1356C52.6349 24.4548 51.5185 23.8562 51.1993 22.7984C48.45 13.689 40.6329 6.97992 31.2682 6.1411V2.15869C42.3649 3.15266 51.84 11.0726 55.0299 21.6421C55.3492 22.6999 54.7505 23.8163 53.6927 24.1356Z" fill="#3073FA"/>
<path d="M24.4504 22.4215C24.4504 21.3165 23.5544 20.4205 22.4494 20.4205C21.3444 20.4205 20.4484 21.3165 20.4484 22.4215C20.4484 23.5968 19.3385 24.8668 17.5588 24.8668C15.779 24.8668 14.6691 23.5969 14.6691 22.4215C14.6691 21.3166 13.7731 20.4206 12.6682 20.4205C11.5632 20.4205 10.6672 21.3165 10.6672 22.4215C10.6672 26.1572 13.9364 28.8688 17.5588 28.8688C21.1811 28.8687 24.4504 26.1572 24.4504 22.4215Z" fill="#F93090"/>
<path d="M45.7917 22.4215C45.7917 21.3165 44.8957 20.4205 43.7907 20.4205C42.6857 20.4205 41.7897 21.3165 41.7897 22.4215C41.7897 23.5968 40.6799 24.8668 38.9001 24.8668C37.1203 24.8668 36.0105 23.5969 36.0105 22.4215C36.0105 21.3166 35.1144 20.4206 34.0095 20.4205C32.9045 20.4205 32.0085 21.3165 32.0085 22.4215C32.0085 26.1572 35.2778 28.8688 38.9001 28.8688C42.5224 28.8687 45.7917 26.1572 45.7917 22.4215Z" fill="#3073FA"/>
<path d="M12.9334 36.2913C13.8677 35.7012 15.1031 35.9801 15.6932 36.9143C16.4733 38.1494 17.7018 39.6428 19.5457 40.6877C21.3527 41.7116 23.8866 42.3842 27.4559 41.7893L28.1141 45.7366C23.6806 46.4755 20.2123 45.6647 17.5731 44.1692C14.971 42.6947 13.3088 40.6318 12.3104 39.051C11.7204 38.1168 11.9993 36.8813 12.9334 36.2913Z" fill="#F93090"/>
<path d="M42.1914 45.7043C41.2572 46.2944 40.0217 46.0155 39.4316 45.0813C38.6515 43.8462 37.4231 42.3528 35.5791 41.3079C33.7722 40.284 31.2382 39.6114 27.6689 40.2063L27.0107 36.259C31.4442 35.5201 34.9126 36.3309 37.5517 37.8264C40.1538 39.3009 41.8161 41.3638 42.8144 42.9446C43.4045 43.8788 43.1256 45.1143 42.1914 45.7043Z" fill="#3073FA"/>
<path d="M31.2682 53.8187C36.9459 53.3102 42.0469 50.6496 45.8037 46.5991C46.5551 45.789 47.821 45.7413 48.6311 46.4927C49.4413 47.2441 49.489 48.51 48.7376 49.3201C44.3474 54.0535 37.9882 57.1992 31.2682 57.8011V53.8187Z" fill="#3073FA"/>
<path d="M52.0228 44.3812C50.008 44.3812 48.283 43.6843 46.8478 42.2905C45.4125 40.8966 44.6949 39.1923 44.6949 37.1775C44.6949 36.2006 44.8812 35.2664 45.2538 34.3749C45.6264 33.4832 46.1646 32.6993 46.8685 32.0231L52.0228 26.9515L57.1772 32.0231C57.881 32.6993 58.4192 33.4832 58.7918 34.3749C59.1644 35.2664 59.3507 36.2006 59.3507 37.1775C59.3507 39.1923 58.6331 40.8966 57.1979 42.2905C55.7627 43.6843 54.0377 44.3812 52.0228 44.3812ZM55.3556 40.4481C56.2802 39.5649 56.7425 38.4727 56.7425 37.1715C56.7425 36.5538 56.6217 35.9657 56.3802 35.4072C56.1387 34.8486 55.796 34.3584 55.3521 33.9366L52.0228 30.6155L48.6936 33.9366C48.2496 34.3584 47.9069 34.8486 47.6654 35.4072C47.4239 35.9657 47.3032 36.5538 47.3032 37.1715C47.3032 38.4727 47.7655 39.5649 48.6901 40.4481C49.6147 41.3313 50.7256 41.7729 52.0228 41.7729C53.32 41.7729 54.431 41.3313 55.3556 40.4481Z" fill="#3073FA"/>
<path d="M59.3507 37.1775C59.3507 36.2006 59.1644 35.2664 58.7918 34.3749C58.4192 33.4832 57.881 32.6993 57.1772 32.0231L52.0228 26.9515L46.8685 32.0231C46.1646 32.6993 45.6264 33.4832 45.2538 34.3749C44.8812 35.2664 44.6949 36.2006 44.6949 37.1775C44.6949 39.1923 45.4125 40.8966 46.8478 42.2905C48.1932 43.5971 49.7933 44.2917 51.648 44.3734L52.0228 44.3812C54.0377 44.3812 55.7627 43.6843 57.1979 42.2905C58.5435 40.9836 59.2584 39.4039 59.3424 37.5511L59.3507 37.1775ZM56.2428 37.1713C56.2427 36.6209 56.1354 36.1006 55.9215 35.6058C55.7069 35.1095 55.4028 34.6748 55.0074 34.2992L54.9986 34.2904L52.0221 31.3207L48.8941 34.4427C48.5682 34.7843 48.3124 35.1715 48.1246 35.6058C47.9107 36.1006 47.8033 36.6209 47.8033 37.1713C47.8033 38.3386 48.2118 39.2993 49.0357 40.0863C49.8658 40.8792 50.8524 41.2728 52.023 41.2728L52.0228 41.7729L51.7818 41.7679C50.6672 41.7197 49.6952 41.3332 48.8658 40.6088L48.6901 40.4481C47.8234 39.6202 47.3625 38.6087 47.3082 37.4135L47.3032 37.1715C47.3032 36.6309 47.3957 36.1128 47.5807 35.6176L47.6654 35.4072C47.8767 34.9184 48.1655 34.482 48.5318 34.098L48.6936 33.9366L52.0228 30.6155L55.3521 33.9366C55.796 34.3584 56.1387 34.8486 56.3802 35.4072C56.6217 35.9657 56.7425 36.5538 56.7425 37.1715L56.7369 37.4135C56.6826 38.6087 56.2223 39.6202 55.3556 40.4481L55.1803 40.6088C54.2917 41.385 53.2389 41.7729 52.0228 41.7729L52.023 41.2728C53.1936 41.2728 54.1803 40.8792 55.0104 40.0863C55.8341 39.2993 56.2428 38.3385 56.2428 37.1713ZM59.8512 37.1771C59.8512 39.3259 59.0792 41.1601 57.5465 42.6488C56.0173 44.1339 54.1668 44.8812 52.023 44.8812C49.8792 44.8812 48.0289 44.134 46.4996 42.6488C44.9667 41.1601 44.1949 39.326 44.1949 37.1771C44.195 36.1349 44.3942 35.1352 44.7926 34.182C45.1919 33.2266 45.7694 32.3856 46.5221 31.6625L52.023 26.2504L57.524 31.6625L57.7975 31.9388C58.4179 32.5974 58.9041 33.3458 59.2535 34.182C59.6519 35.1351 59.8511 36.1349 59.8512 37.1771Z" fill="#3073FA"/>
<path d="M30.2237 59.9844H26.2237L26.2237 0L30.2237 1.74846e-07L30.2237 59.9844Z" fill="#3073FA"/>
</g>
<defs>
<clipPath id="clip0_917_4315">
<rect width="60" height="60" fill="white"/>
</clipPath>
</defs>
</svg>
