<svg width="24" height="24" viewBox="0 0 24 24" fill="none" xmlns="http://www.w3.org/2000/svg">
<g clip-path="url(#clip0_719_4209)">
<mask id="mask0_719_4209" style="mask-type:luminance" maskUnits="userSpaceOnUse" x="0" y="0" width="24" height="24">
<path d="M24 0H0V24H24V0Z" fill="white"/>
</mask>
<g mask="url(#mask0_719_4209)">
<path d="M24 12C24 18.6274 18.6274 24 12 24C5.37258 24 0 18.6274 0 12C0 5.37258 5.37258 0 12 0C18.6274 0 24 5.37258 24 12Z" fill="#C7D3FF"/>
<path d="M11.9082 17.6719C15.9651 17.6719 19.2539 14.3831 19.2539 10.3262C19.2539 6.26928 15.9651 2.9805 11.9082 2.9805C7.85128 2.9805 4.5625 6.26928 4.5625 10.3262C4.5625 14.3831 7.85128 17.6719 11.9082 17.6719Z" fill="#5473E4"/>
<path d="M11.5703 6.318C12.5159 6.20675 14.4072 6.32296 15.2415 8.98836" stroke="white" stroke-width="2.00337" stroke-linecap="round"/>
<path d="M9.24219 18.5066C9.24219 18.0456 9.61591 17.6719 10.0769 17.6719H13.7498C14.2108 17.6719 14.5845 18.0456 14.5845 18.5066C14.5845 18.9676 14.2108 19.3414 13.7498 19.3414H10.0769C9.61591 19.3414 9.24219 18.9676 9.24219 18.5066Z" fill="#3C4564"/>
<path d="M9.24219 21.0079H10.5772C11.3148 21.0079 11.9128 20.4099 11.9128 19.6723V19.1719" stroke="#3C4564" stroke-width="2.00337"/>
</g>
</g>
<defs>
<clipPath id="clip0_719_4209">
<rect width="24" height="24" fill="white"/>
</clipPath>
</defs>
</svg>
