<svg width="64" height="64" viewBox="0 0 64 64" fill="none" xmlns="http://www.w3.org/2000/svg">
<circle cx="32" cy="32" r="32" fill="#C7D3FF"/>
<path d="M11 43.7812V22.2188C11 19.8888 12.8888 18 15.2188 18H45.1497C47.4796 18 49.3684 19.8888 49.3684 22.2188V25.8474C49.3684 25.8992 49.4104 25.9412 49.4622 25.9412H52.25C54.3211 25.9412 56 27.6201 56 29.6912V37.1912C56 39.2622 54.3211 40.9412 52.25 40.9412H49.4622C49.4104 40.9412 49.3684 40.9832 49.3684 41.0349V43.7812C49.3684 46.1112 47.4796 48 45.1497 48H15.2188C12.8888 48 11 46.1112 11 43.7812Z" fill="white" stroke="#6580E2" stroke-width="4.6875"/>
<rect x="17.5625" y="24.5625" width="10.3125" height="16.875" rx="1.875" fill="#EA4843"/>
</svg>
