<svg width="64" height="64" viewBox="0 0 64 64" fill="none" xmlns="http://www.w3.org/2000/svg">
<circle cx="32" cy="32" r="32" fill="#C7D3FF"/>
<mask id="mask0_702_11097" style="mask-type:alpha" maskUnits="userSpaceOnUse" x="0" y="0" width="64" height="64">
<circle cx="32" cy="32" r="32" fill="#C7D3FF"/>
</mask>
<g mask="url(#mask0_702_11097)">
<path d="M13.8997 56.5H31.4661H50.7912C53.4258 56.5 55.6346 54.4765 55.8967 51.8549C56.1552 49.2701 56.1025 46.6408 55.7351 44.0692C55.5343 42.6637 55.1242 41.2955 54.5043 40.0182C53.0972 37.1189 52.0085 34.8393 52.0085 32.2486V25.3273C52.0085 23.4801 51.8581 21.6157 51.2425 19.874C47.348 8.85598 36.5018 6 31.4661 6C20.7064 6 15.0467 14.1044 12.8705 19.8937C12.2205 21.6228 12.065 23.4801 12.065 25.3273V32.2486C12.065 34.34 11.2913 36.5254 10.3696 38.3491C9.11243 40.8361 7.94663 43.437 7.71521 46.2141L7.64545 47.0512C7.54863 48.213 7.54326 49.3806 7.62938 50.5433L7.64002 50.6869C7.88281 53.9646 10.613 56.5 13.8997 56.5Z" fill="url(#paint0_linear_702_11097)"/>
<path d="M47.195 56.4998H38.8984H15.1134C14.2854 54.9142 14.1579 53.3123 14.3173 51.9902C14.5351 50.1832 16.0438 48.8232 16.5809 47.0841C16.7637 46.4924 16.8675 45.8753 16.9322 45.29C17.0504 44.2223 16.7951 43.1559 16.5027 42.1222C15.3208 37.943 16.3452 33.4857 16.9192 31.963L45.4503 31.6777C48.4562 36.1355 47.2164 41.9374 45.758 45.2751C45.3068 46.3076 44.905 47.3836 44.9119 48.5104C44.9371 52.6209 46.3818 55.493 47.195 56.4998Z" fill="#3C273A"/>
<path d="M23.5 48H38.5V61H23.5V48Z" fill="#B97B67"/>
<path d="M17.1908 31.7956C21.898 28.9072 28.0153 22.5104 30.9671 19.1294C31.2179 18.842 31.6728 18.8711 31.8961 19.1804C35.0692 23.5761 42.2232 29.2506 45.5114 31.7931C45.6513 31.9013 45.7305 32.0659 45.7305 32.2428V36.4078C45.7305 39.6826 45.2003 43.0692 43.0832 45.5677C39.183 50.1704 33.8885 51.5731 31.4649 51.6488C26.6597 51.5032 22.7601 48.7178 20.1219 45.8557C17.6609 43.1859 16.9141 39.4834 16.9141 35.8523V32.288C16.9141 32.0862 17.0188 31.9012 17.1908 31.7956Z" fill="#DEA392"/>
<path d="M33.4242 43.0775C33.5667 42.9146 33.781 42.9233 33.9359 43.014C34.0907 43.1048 34.2041 43.288 34.1351 43.4915C33.8788 44.246 33.7349 45.0409 34.057 45.7826C34.1762 46.0572 34.3632 46.2872 34.5511 46.5247C34.7374 46.7603 34.9243 47.0038 35.0296 47.2992C35.0751 47.4267 35.0386 47.5489 34.9642 47.638C34.8906 47.7262 34.7773 47.7856 34.6615 47.7914C34.1806 47.8154 33.7765 47.5502 33.4671 47.1888C33.1577 46.8272 32.9362 46.3627 32.8197 45.971C32.5146 44.9474 32.7254 43.8797 33.4242 43.0775Z" fill="#976555" stroke="#532A32" stroke-width="0.1"/>
<path d="M32.3188 44.8417C32.4837 44.8398 32.649 44.8469 32.8041 44.8759C33.1185 44.9347 33.3992 45.0849 33.558 45.4315C33.615 45.5558 33.6207 45.6793 33.5766 45.786C33.5326 45.8926 33.4417 45.9763 33.3168 46.0263C33.0287 46.1411 32.688 46.1499 32.351 46.1288C32.182 46.1182 32.0115 46.1001 31.8481 46.0829C31.6843 46.0657 31.5269 46.0492 31.3813 46.0429C30.6224 46.0106 29.8644 45.9658 29.1059 45.9159C28.8249 45.8972 28.6826 45.6867 28.683 45.4774C28.6837 45.2686 28.8265 45.0573 29.1049 45.036C30.0142 44.9675 30.9238 44.9063 31.8354 44.8622L32.3188 44.8417Z" fill="#976555" stroke="#532A32" stroke-width="0.1"/>
<path d="M28.5605 43.2301C28.735 43.1624 28.9675 43.1937 29.0879 43.3863C29.5394 44.1123 29.7746 44.9022 29.7188 45.7545L29.7031 45.9254C29.6636 46.2792 29.5702 46.7247 29.3818 47.1002C29.1934 47.4757 28.9054 47.7897 28.4756 47.8609C28.3379 47.8837 28.2154 47.8573 28.123 47.7858C28.031 47.7144 27.9744 47.6028 27.958 47.4674C27.9211 47.1657 28.0154 46.869 28.1309 46.5846C28.248 46.296 28.3848 46.0232 28.4512 45.7516C28.6181 45.0694 28.5781 44.3676 28.334 43.7096C28.2922 43.5966 28.3023 43.4933 28.3486 43.4088C28.3943 43.3255 28.4725 43.2643 28.5605 43.2301Z" fill="#976555" stroke="#532A32" stroke-width="0.1"/>
<path d="M33.75 29.9646C34.701 29.1086 38.6003 28.2533 40.8828 29.9646" stroke="#BE796A" stroke-width="1.71186" stroke-linecap="round"/>
<path d="M30.895 40.5202V33.5626C30.895 31.7787 30.2743 29.953 28.5526 29.4859C26.9891 29.0617 24.9149 29.0122 22.9062 29.6812" stroke="#BE796A" stroke-width="1.71186" stroke-linecap="round"/>
<path d="M20.9062 33.1035C22.6181 34.2448 25.1859 35.1007 27.7537 33.1035" stroke="#532A32" stroke-width="1.42655" stroke-linecap="round"/>
<path d="M34.0312 33.1035C35.7431 34.2448 38.3109 35.1007 40.8787 33.1035" stroke="#532A32" stroke-width="1.42655" stroke-linecap="round"/>
<path d="M38.4808 51.9661L54.4099 56.1251L50.4311 67.2249L12.5009 67.2249L8.49737 56.1249L23.4808 51.9661C22.904 59.1778 31.0317 59.3272 31.0317 59.3272C31.0317 59.3272 39.1293 59.1731 38.4808 51.9661Z" fill="#E9EEFF"/>
</g>
<ellipse cx="24" cy="40" rx="2" ry="1" fill="#D3907D"/>
<ellipse cx="38" cy="40" rx="2" ry="1" fill="#D3907D"/>
<defs>
<linearGradient id="paint0_linear_702_11097" x1="31.8941" y1="6" x2="31.8941" y2="56.5" gradientUnits="userSpaceOnUse">
<stop stop-color="#3E253A"/>
<stop offset="1" stop-color="#593D56"/>
</linearGradient>
</defs>
</svg>
