<svg width="64" height="64" viewBox="0 0 64 64" fill="none" xmlns="http://www.w3.org/2000/svg">
<circle cx="32" cy="32" r="32" fill="#C7D3FF"/>
<mask id="mask0_702_11097" style="mask-type:alpha" maskUnits="userSpaceOnUse" x="0" y="0" width="64" height="64">
<circle cx="32" cy="32" r="32" fill="#C7D3FF"/>
</mask>
<g mask="url(#mask0_702_11097)">
<path d="M13.8997 56.5H31.4661H50.7912C53.4258 56.5 55.6346 54.4765 55.8967 51.8549C56.1552 49.2701 56.1025 46.6408 55.7351 44.0692C55.5343 42.6637 55.1242 41.2955 54.5043 40.0182C53.0972 37.1189 52.0085 34.8393 52.0085 32.2486V25.3273C52.0085 23.4801 51.8581 21.6157 51.2425 19.874C47.348 8.85598 36.5018 6 31.4661 6C20.7064 6 15.0467 14.1044 12.8705 19.8937C12.2205 21.6228 12.065 23.4801 12.065 25.3273V32.2486C12.065 34.34 11.2913 36.5254 10.3696 38.3491C9.11243 40.8361 7.94663 43.437 7.71521 46.2141L7.64545 47.0512C7.54863 48.213 7.54326 49.3806 7.62938 50.5433L7.64002 50.6869C7.88281 53.9646 10.613 56.5 13.8997 56.5Z" fill="url(#paint0_linear_702_11097)"/>
<path d="M47.195 56.4998H38.8984H15.1134C14.2854 54.9142 14.1579 53.3123 14.3173 51.9902C14.5351 50.1832 16.0438 48.8232 16.5809 47.0841C16.7637 46.4924 16.8675 45.8753 16.9322 45.29C17.0504 44.2223 16.7951 43.1559 16.5027 42.1222C15.3208 37.943 16.3452 33.4857 16.9192 31.963L45.4503 31.6777C48.4562 36.1355 47.2164 41.9374 45.758 45.2751C45.3068 46.3076 44.905 47.3836 44.9119 48.5104C44.9371 52.6209 46.3818 55.493 47.195 56.4998Z" fill="#3C273A"/>
<path d="M23.5 48H38.5V61H23.5V48Z" fill="#B97B67"/>
<path d="M17.1908 31.7956C21.898 28.9072 28.0153 22.5104 30.9671 19.1294C31.2179 18.842 31.6728 18.8711 31.8961 19.1804C35.0692 23.5761 42.2232 29.2506 45.5114 31.7931C45.6513 31.9013 45.7305 32.0659 45.7305 32.2428V36.4078C45.7305 39.6826 45.2003 43.0692 43.0832 45.5677C39.183 50.1704 33.8885 51.5731 31.4649 51.6488C26.6597 51.5032 22.7601 48.7178 20.1219 45.8557C17.6609 43.1859 16.9141 39.4834 16.9141 35.8523V32.288C16.9141 32.0862 17.0188 31.9012 17.1908 31.7956Z" fill="#DEA392"/>
<path d="M33.4618 43.1106C32.7748 43.8993 32.5674 44.9484 32.8678 45.9563C33.0978 46.7294 33.7397 47.7873 34.6586 47.7413C34.8612 47.7315 35.0598 47.5319 34.9825 47.3156C34.778 46.7421 34.2554 46.3663 34.0108 45.8027C33.681 45.0433 33.8307 44.233 34.0881 43.4756C34.2065 43.1262 33.7064 42.8307 33.4618 43.1106Z" fill="#976555"/>
<path d="M33.3861 43.0443C33.549 42.8581 33.7922 42.8719 33.9613 42.971C34.1302 43.0701 34.2617 43.2758 34.183 43.5082C33.9277 44.2595 33.7886 45.0392 34.1029 45.763C34.219 46.0303 34.4012 46.2546 34.5902 46.4935C34.7761 46.7285 34.968 46.9776 35.0765 47.2816C35.1292 47.4289 35.0861 47.57 35.0023 47.6703C34.9407 47.7439 34.8545 47.7996 34.7601 47.8255L34.6635 47.8412C34.161 47.8663 33.7437 47.5886 33.4291 47.221C33.114 46.8529 32.8899 46.3816 32.7719 45.9847C32.4622 44.9455 32.6756 43.86 33.3861 43.0443ZM34.0881 43.4756C34.2065 43.1262 33.7064 42.8307 33.4618 43.1106L33.3383 43.2611C32.7505 44.0299 32.5861 45.0113 32.8678 45.9563C33.0834 46.6811 33.6611 47.6565 34.4896 47.7376L34.6586 47.7413C34.8358 47.7327 35.0102 47.5789 34.9994 47.3958L34.9825 47.3156C34.8036 46.8139 34.3813 46.4635 34.1146 46.0062L34.0108 45.8027C33.7222 45.1382 33.8009 44.4349 33.9974 43.7621L34.0881 43.4756Z" fill="#976555"/>
<path d="M29.1095 45.8661C29.8679 45.916 30.6253 45.9611 31.3837 45.9934C31.9738 46.0188 32.743 46.2008 33.2979 45.9797C33.5278 45.8877 33.6169 45.6802 33.5122 45.4522C33.2117 44.7965 32.4592 44.8826 31.8378 44.912C30.9267 44.956 30.0176 45.0177 29.1085 45.0862C28.6094 45.1244 28.6055 45.8329 29.1095 45.8661Z" fill="#976555"/>
<path d="M31.8334 44.8124C32.1372 44.7981 32.4961 44.7676 32.8139 44.8271C33.139 44.8879 33.4355 45.0449 33.603 45.4101C33.6648 45.5447 33.6727 45.6828 33.6225 45.8046C33.5724 45.9259 33.4702 46.0181 33.3354 46.0722C33.0366 46.1912 32.6865 46.1998 32.3481 46.1786C32.1778 46.1679 32.0063 46.1498 31.8432 46.1327C31.6791 46.1155 31.5233 46.0999 31.3793 46.0937C30.6199 46.0613 29.8617 46.0157 29.103 45.9657C28.7925 45.9452 28.6328 45.7101 28.6332 45.4775C28.6339 45.2456 28.7935 45.0098 29.101 44.9862C30.0106 44.9177 30.9211 44.8565 31.8334 44.8124ZM31.8378 44.912L30.4721 44.9901C30.0175 45.0196 29.5628 45.052 29.1085 45.0862L29.0209 45.1005C28.6108 45.2097 28.6369 45.8349 29.1095 45.8661C29.8679 45.916 30.6253 45.9611 31.3837 45.9934C31.9371 46.0172 32.6479 46.1789 33.1918 46.0165L33.2979 45.9797C33.5278 45.8877 33.6169 45.6802 33.5122 45.4522C33.2117 44.7965 32.4592 44.8826 31.8378 44.912Z" fill="#976555"/>
<path d="M28.3806 43.6926C28.6282 44.36 28.6693 45.0714 28.5 45.7633C28.365 46.3162 27.9373 46.8848 28.0078 47.4612C28.0381 47.7117 28.2143 47.8536 28.4677 47.8115C29.2829 47.6764 29.5755 46.6215 29.6538 45.9199C29.7536 45.0147 29.5217 44.179 29.0451 43.4127C28.8366 43.079 28.2319 43.2914 28.3806 43.6926Z" fill="#976555"/>
<path d="M28.543 43.1842C28.7332 43.1105 28.9934 43.1415 29.1299 43.36C29.6165 44.1424 29.8555 45.0006 29.7529 45.9313C29.7131 46.2881 29.6187 46.7399 29.4268 47.1227C29.2348 47.5052 28.9363 47.8348 28.4844 47.9098C28.3355 47.9345 28.1982 47.9064 28.0928 47.8248C28.0143 47.764 27.9594 47.679 27.9297 47.5787L27.9082 47.4732C27.8697 47.1581 27.9681 46.8515 28.084 46.566C28.2033 46.272 28.3381 46.0068 28.4033 45.7398C28.5679 45.0674 28.5277 44.3758 28.2871 43.7272C28.2405 43.6013 28.2509 43.4823 28.3047 43.3844C28.3571 43.289 28.4461 43.2218 28.543 43.1842ZM29.0451 43.4127C28.8366 43.079 28.2319 43.2914 28.3806 43.6926C28.6282 44.36 28.6693 45.0714 28.5 45.7633C28.365 46.3162 27.9373 46.8848 28.0078 47.4612C28.0344 47.68 28.1724 47.8164 28.376 47.8189L28.4677 47.8115C29.2829 47.6764 29.5755 46.6215 29.6538 45.9199C29.7536 45.0147 29.5217 44.179 29.0451 43.4127Z" fill="#976555"/>
<path d="M36.751 28.1484C38.2352 28.0334 40.0221 28.2489 41.3965 29.2793C41.7747 29.5629 41.851 30.1003 41.5674 30.4785C41.2837 30.8564 40.7472 30.9329 40.3692 30.6494C39.4611 29.9686 38.1565 29.7567 36.8828 29.8555C36.2587 29.9039 35.6774 30.0246 35.209 30.1768C34.7176 30.3365 34.4286 30.5049 34.3223 30.6006C33.971 30.9167 33.4305 30.8883 33.1143 30.5371C32.798 30.1857 32.8264 29.6444 33.1777 29.3281C33.5469 28.996 34.1025 28.7367 34.6807 28.5488C35.282 28.3535 35.9965 28.2069 36.751 28.1484Z" fill="#BE796A"/>
<path d="M30.0391 40.5205V33.5625C30.039 31.8639 29.45 30.6159 28.3281 30.3115C26.9164 29.9286 25.0149 29.8809 23.1768 30.4932C22.7284 30.6425 22.2433 30.4005 22.0938 29.9521C21.9444 29.5037 22.1873 29.0185 22.6358 28.8691C24.8148 28.1434 27.0613 28.1949 28.7764 28.6602C31.0979 29.29 31.751 31.6932 31.751 33.5625V40.5205C31.7508 40.9931 31.3672 41.376 30.8945 41.376C30.4221 41.3757 30.0392 40.993 30.0391 40.5205Z" fill="#BE796A"/>
<path d="M20.9062 33.1035C22.6181 34.2448 25.1859 35.1007 27.7537 33.1035" stroke="#532A32" stroke-width="1.42655" stroke-linecap="round"/>
<path d="M34.0312 33.1035C35.7431 34.2448 38.3109 35.1007 40.8787 33.1035" stroke="#532A32" stroke-width="1.42655" stroke-linecap="round"/>
<path d="M38.4808 51.9661L54.4099 56.1251L50.4311 67.2249L12.5009 67.2249L8.49737 56.1249L23.4808 51.9661C22.904 59.1778 31.0317 59.3272 31.0317 59.3272C31.0317 59.3272 39.1293 59.1731 38.4808 51.9661Z" fill="#E9EEFF"/>
</g>
<ellipse cx="24" cy="40" rx="2" ry="1" fill="#D3907D"/>
<ellipse cx="38" cy="40" rx="2" ry="1" fill="#D3907D"/>
<defs>
<linearGradient id="paint0_linear_702_11097" x1="31.8941" y1="6" x2="31.8941" y2="56.5" gradientUnits="userSpaceOnUse">
<stop stop-color="#3E253A"/>
<stop offset="1" stop-color="#593D56"/>
</linearGradient>
</defs>
</svg>
