<svg width="64" height="64" viewBox="0 0 64 64" fill="none" xmlns="http://www.w3.org/2000/svg">
<g clip-path="url(#clip0_702_10152)">
<path d="M32 63.615C49.6731 63.615 64 49.3743 64 31.8075C64 14.2407 49.6731 0 32 0C14.3269 0 0 14.2407 0 31.8075C0 49.3743 14.3269 63.615 32 63.615Z" fill="#C7D3FF"/>
<path d="M37.9014 30.5908C37.9014 31.0636 37.5178 31.4461 37.045 31.4461H10.8559C10.3836 31.4461 10 31.0631 10 30.5908C10 30.1185 10.3836 29.7344 10.8559 29.7344H37.045C37.5184 29.7344 37.9014 30.1185 37.9014 30.5908Z" fill="white"/>
<path d="M21.2398 33.2109L26.015 48.356C19.9154 49.6628 18.6914 54.8023 18.6914 54.8023H46.3337V51.8617V48.0541V33.2109H21.2398Z" fill="#E9EEFF"/>
<g filter="url(#filter0_d_702_10152)">
<path d="M24.9625 47.0332C32.1082 47.0332 37.9016 41.2408 37.9016 34.0957H12.0234C12.0234 41.2408 17.8164 47.0332 24.9625 47.0332Z" fill="white"/>
</g>
<path d="M48.0006 33.2094C48.0006 34.1844 47.2104 34.9746 46.2359 34.9746H11.7685C10.7941 34.9746 10.0039 34.1844 10.0039 33.2094C10.0039 32.2355 10.7941 31.4453 11.7685 31.4453H46.2365C47.2104 31.4453 48.0006 32.2355 48.0006 33.2094Z" fill="#5473E4"/>
<path d="M35.3358 31.4461H46.6599L47.4735 13.1105C47.5996 10.8496 45.8515 9 43.5868 9H38.4083C36.1441 9 34.395 10.8496 34.5221 13.1105L35.3358 31.4461Z" fill="white"/>
<path d="M43.5868 9H38.4083C36.1441 9 34.395 10.8496 34.5221 13.1105L34.6749 16.5469H47.3213L47.4741 13.1105C47.6001 10.8496 45.8515 9 43.5868 9Z" fill="#5473E4"/>
</g>
<defs>
<filter id="filter0_d_702_10152" x="8.52338" y="29.5957" width="32.8782" height="19.9375" filterUnits="userSpaceOnUse" color-interpolation-filters="sRGB">
<feFlood flood-opacity="0" result="BackgroundImageFix"/>
<feColorMatrix in="SourceAlpha" type="matrix" values="0 0 0 0 0 0 0 0 0 0 0 0 0 0 0 0 0 0 127 0" result="hardAlpha"/>
<feOffset dy="-1"/>
<feGaussianBlur stdDeviation="1.75"/>
<feComposite in2="hardAlpha" operator="out"/>
<feColorMatrix type="matrix" values="0 0 0 0 0 0 0 0 0 0 0 0 0 0 0 0 0 0 0.25 0"/>
<feBlend mode="normal" in2="BackgroundImageFix" result="effect1_dropShadow_702_10152"/>
<feBlend mode="normal" in="SourceGraphic" in2="effect1_dropShadow_702_10152" result="shape"/>
</filter>
<clipPath id="clip0_702_10152">
<rect width="64" height="64" fill="white"/>
</clipPath>
</defs>
</svg>
