<svg width="64" height="64" viewBox="0 0 64 64" fill="none" xmlns="http://www.w3.org/2000/svg">
<path d="M63.9276 32C63.9276 49.6731 49.6169 64 31.9638 64C14.3107 64 0 49.6731 0 32C0 14.3269 14.3107 3.15214e-10 31.9638 3.15214e-10C49.6169 3.15214e-10 63.9276 14.3269 63.9276 32Z" fill="#C7D3FF"/>
<path d="M19.0536 42.797C19.6956 42.5911 20.3829 42.9451 20.5885 43.5879C20.7942 44.2306 20.4404 44.9186 19.7984 45.1245L10.3626 48.1507C9.72055 48.3566 9.03335 48.0024 8.82768 47.3596C8.62202 46.7169 8.97567 46.0289 9.61769 45.8229L19.0536 42.797Z" fill="white"/>
<path d="M17.9849 29.0764C18.6514 29.178 19.1094 29.8013 19.0079 30.4685C18.9064 31.1357 18.2838 31.5942 17.6173 31.4926L7.82213 29.9991C7.15564 29.8974 6.69767 29.2741 6.79918 28.6068C6.9007 27.9396 7.52322 27.481 8.1897 27.5826L17.9849 29.0764Z" fill="white"/>
<path d="M23.3987 17.0056C23.8585 17.4991 23.8319 18.2724 23.3389 18.7328C22.846 19.1932 22.0735 19.1664 21.6136 18.6729L14.8544 11.4201C14.3945 10.9266 14.4213 10.1533 14.9143 9.69283C15.4072 9.23241 16.1796 9.25912 16.6395 9.7526L23.3987 17.0056Z" fill="white"/>
<path d="M30.6712 4.26196V0.03962C48.9635 -0.823301 58.8041 12.6239 61.4379 19.4554C57.7028 18.6883 38.8062 19.1466 29.9074 19.4662C29.8262 18.4096 30.0644 17.543 30.3725 16.8466C30.9601 15.5187 31.8783 14.2931 32.322 12.9103C32.8706 11.2007 32.6633 9.77141 32.1834 8.69306C31.5477 7.26444 30.6712 5.82592 30.6712 4.26196Z" fill="#5473E4"/>
<path d="M51.4491 13.0811L32.1744 13.3557C32.6104 12.3955 32.6104 9.77673 32.3488 9.0784L43.3367 8.86892C47.1914 8.86888 50.1093 9.92787 51.9325 10.7029C52.3855 10.8955 52.6744 11.3441 52.6744 11.8368C52.6744 12.5172 52.1286 13.0715 51.4491 13.0811Z" fill="#7791F1"/>
<path d="M26.9358 52.0148C15.539 37.6328 24.2277 24.4093 30.0538 19.6552C44.1328 18.9841 56.8649 19.136 61.4136 19.4157C67.7584 34.2771 60.8197 46.3818 57.7071 51.056L26.9358 52.0148Z" fill="#DEA392"/>
<path d="M52.7938 34.1572C53.0812 21.0216 37.7497 19.0161 30.0481 19.6553C15.8739 32.4073 22.0674 46.5416 26.9358 52.0148L38.1889 51.6554C50.2562 46.8614 52.9535 37.9525 52.7938 34.1572Z" fill="#DEA392"/>
<path d="M60.5756 17.3783C53.1054 16.2277 37.0718 16.8989 30.1682 17.3783C29.7851 18.4329 29.8342 19.4305 29.9938 19.7102C34.8774 19.4662 45.515 18.6805 61.4714 19.5356L60.5756 17.3783Z" fill="#7791F1"/>
<path d="M28.9893 34.3944C28.9816 34.387 28.9561 34.3821 28.9166 34.3899C28.4426 34.5028 27.8746 35.4448 27.8468 36.2558C27.7814 37.0997 28.1751 37.9576 28.8867 38.5551C28.9636 38.6214 29.0432 38.685 29.1293 38.7482C29.036 38.8957 28.9428 39.0432 28.8495 39.1907C28.7448 39.1328 28.6457 39.0738 28.5483 39.0103C26.6889 37.943 26.0017 34.7343 28.4209 33.1312C28.5826 33.0592 28.7788 33.0047 28.9893 32.9977V34.3944Z" fill="#A9796A"/>
<path d="M24.0626 62.9213L26.9358 52.0148C38.091 50.9583 52.108 50.8839 57.7221 50.9787C46.1253 65.9057 30.8665 64.7709 24.0626 62.9213Z" fill="#5473E4"/>
<path d="M47.8119 54.6673L26.158 54.9941L24.0654 62.9377C25.8851 63.7048 29.6338 63.9453 31.3896 63.9852C36.9945 63.3413 44.8614 58.9457 48.4158 56.5083C48.6873 56.3221 48.8435 56.0141 48.8435 55.6846C48.8435 55.1167 48.3791 54.6587 47.8119 54.6673Z" fill="#7791F1"/>
</svg>
