<svg width="64" height="64" viewBox="0 0 64 64" fill="none" xmlns="http://www.w3.org/2000/svg">
<circle cx="32" cy="32" r="32" fill="#C7D3FF"/>
<mask id="mask0_723_4347" style="mask-type:alpha" maskUnits="userSpaceOnUse" x="0" y="0" width="64" height="64">
<circle cx="32" cy="32" r="32" fill="#C7D3FF"/>
</mask>
<g mask="url(#mask0_723_4347)">
<path d="M13.8997 56.5H50.7912C53.4259 56.5 55.6346 54.4765 55.8968 51.8549C56.1552 49.2701 56.1025 46.6408 55.7351 44.0692C55.5343 42.6637 55.1242 41.2955 54.5043 40.0182C53.0972 37.1189 52.0085 34.8393 52.0085 32.2486V25.3273C52.0085 23.4801 51.8582 21.6157 51.2426 19.874C47.348 8.85598 36.5019 6 31.4661 6C20.7064 6 15.0468 14.1044 12.8705 19.8937C12.2205 21.6228 12.065 23.4801 12.065 25.3273V32.2486C12.065 34.34 11.2914 36.5254 10.3696 38.3491C9.11245 40.8361 7.94666 43.437 7.71523 46.2141L7.64548 47.0512C7.54866 48.213 7.54329 49.3806 7.62941 50.5433L7.64004 50.6869C7.88284 53.9646 10.613 56.5 13.8997 56.5Z" fill="url(#paint0_linear_723_4347)"/>
<path d="M47.1951 56.4998H15.1135C14.2854 54.9142 14.1579 53.3123 14.3173 51.9902C14.5351 50.1832 16.0438 48.8232 16.5809 47.0841C16.7637 46.4924 16.8675 45.8753 16.9323 45.29C17.0504 44.2223 16.7951 43.1559 16.5027 42.1222C15.3208 37.943 16.3453 33.4857 16.9193 31.963L45.4503 31.6777C48.4563 36.1355 47.2164 41.9374 45.758 45.2751C45.3068 46.3076 44.905 47.3836 44.9119 48.5104C44.9372 52.6209 46.3818 55.493 47.1951 56.4998Z" fill="#3C273A"/>
<path d="M23.5 48H38.5V61H23.5V48Z" fill="#B97B67"/>
<path d="M17.1908 31.7956C21.898 28.9072 28.0153 22.5104 30.9671 19.1294C31.2179 18.842 31.6728 18.8711 31.8961 19.1804C35.0692 23.5761 42.2232 29.2506 45.5114 31.7931C45.6513 31.9013 45.7305 32.0659 45.7305 32.2428V36.4078C45.7305 39.6826 45.2003 43.0692 43.0832 45.5677C39.183 50.1704 33.8885 51.5731 31.4649 51.6488C26.6597 51.5032 22.7601 48.7178 20.122 45.8557C17.6609 43.1859 16.9141 39.4834 16.9141 35.8523V32.288C16.9141 32.0862 17.0188 31.9012 17.1908 31.7956Z" fill="#DEA392"/>
<path d="M38.4808 51.9661L54.4099 56.1251L50.4311 67.2248H12.5009L8.49738 56.1249L23.4808 51.9661C22.904 59.1777 31.0317 59.3272 31.0317 59.3272C31.0317 59.3272 39.1293 59.1731 38.4808 51.9661Z" fill="#E9EEFF"/>
<path d="M50.0393 14.4538C50.0426 14.3637 50.0461 14.2736 50.0461 14.1826C50.0461 10.2158 46.8728 7 42.9582 7C39.6268 7 36.8336 9.32994 36.075 12.4691C35.6139 12.2465 35.0997 12.1181 34.5548 12.1181C32.9996 12.1181 31.6814 13.1349 31.2044 14.5472C28.816 15.0241 27 17.1691 27 19.7237C27 22.6257 29.3431 25 32.2066 25H49.7934C52.6571 25 55 22.6257 55 19.7237C55.0002 16.9054 52.79 14.585 50.0393 14.4538Z" fill="white"/>
<path d="M42.2294 18.5263C42.2294 17.7447 42.2959 17.1827 42.4289 16.8401C42.5619 16.4976 42.844 16.1237 43.2752 15.7184C43.6514 15.3711 43.9381 15.0695 44.1353 14.8138C44.3326 14.5581 44.4312 14.2662 44.4312 13.9382C44.4312 13.5425 44.305 13.2145 44.0528 12.9539C43.8005 12.6934 43.4495 12.5632 43 12.5632C42.5321 12.5632 42.1766 12.7127 41.9335 13.0118C41.6904 13.311 41.5183 13.6149 41.4174 13.9237L40 13.2868C40.1927 12.6693 40.5459 12.1338 41.0596 11.6803C41.5734 11.2268 42.2202 11 43 11C43.9633 11 44.7041 11.2822 45.2225 11.8467C45.7408 12.4112 46 13.089 46 13.8803C46 14.3627 45.9014 14.7752 45.7041 15.1178C45.5069 15.4603 45.1972 15.8487 44.7752 16.2829C44.3257 16.7364 44.0528 17.0814 43.9564 17.3178C43.8601 17.5542 43.8119 17.957 43.8119 18.5263H42.2294ZM43 22C42.6972 22 42.4381 21.8866 42.2225 21.6599C42.0069 21.4331 41.8991 21.1605 41.8991 20.8421C41.8991 20.5237 42.0069 20.2511 42.2225 20.0243C42.4381 19.7976 42.6972 19.6842 43 19.6842C43.3028 19.6842 43.5619 19.7976 43.7775 20.0243C43.9931 20.2511 44.1009 20.5237 44.1009 20.8421C44.1009 21.1605 43.9931 21.4331 43.7775 21.6599C43.5619 21.8866 43.3028 22 43 22Z" fill="#472D43"/>
<path d="M36.751 28.1484C38.2352 28.0334 40.0221 28.2489 41.3965 29.2793C41.7747 29.5629 41.851 30.1003 41.5674 30.4785C41.2837 30.8564 40.7472 30.9329 40.3691 30.6494C39.4611 29.9686 38.1565 29.7567 36.8828 29.8555C36.2587 29.9039 35.6774 30.0246 35.209 30.1768C34.7176 30.3365 34.4286 30.5049 34.3223 30.6006C33.971 30.9167 33.4305 30.8883 33.1143 30.5371C32.798 30.1857 32.8264 29.6444 33.1777 29.3281C33.5469 28.996 34.1025 28.7367 34.6807 28.5488C35.282 28.3535 35.9965 28.2069 36.751 28.1484Z" fill="#BE796A"/>
<path d="M30.039 40.5205V33.5625C30.039 31.8639 29.45 30.6159 28.3281 30.3115C26.9163 29.9286 25.0148 29.881 23.1767 30.4932C22.7283 30.6425 22.2432 30.4005 22.0937 29.9522C21.9444 29.5037 22.1872 29.0185 22.6357 28.8691C24.8147 28.1434 27.0613 28.1949 28.7763 28.6602C31.0978 29.29 31.7509 31.6932 31.751 33.5625V40.5205C31.7508 40.9931 31.3671 41.376 30.8945 41.376C30.4221 41.3758 30.0392 40.993 30.039 40.5205Z" fill="#BE796A"/>
<path d="M20.3027 32.7012C20.5248 32.368 20.9754 32.2779 21.3086 32.5C22.1022 33.0291 23.0566 33.466 24.0742 33.5586C25.0703 33.6492 26.1716 33.4156 27.3086 32.5312C27.6246 32.2854 28.0803 32.3422 28.3262 32.6582C28.5719 32.9742 28.515 33.4299 28.1992 33.6758C26.7684 34.7886 25.301 35.1263 23.9433 35.0029C22.6073 34.8815 21.422 34.3191 20.5039 33.707C20.1707 33.4849 20.0806 33.0343 20.3027 32.7012Z" fill="#532A32"/>
<path d="M33.4277 32.7012C33.6498 32.368 34.1004 32.2779 34.4336 32.5C35.2272 33.0291 36.1816 33.466 37.1992 33.5586C38.1953 33.6492 39.2966 33.4156 40.4336 32.5312C40.7496 32.2854 41.2053 32.3422 41.4512 32.6582C41.6969 32.9742 41.64 33.4299 41.3242 33.6758C39.8934 34.7886 38.426 35.1263 37.0683 35.0029C35.7323 34.8815 34.547 34.3191 33.6289 33.707C33.2957 33.4849 33.2056 33.0343 33.4277 32.7012Z" fill="#532A32"/>
<path d="M33.5113 43.2677C32.6071 42.6992 30.992 42.6992 30.992 42.6992C30.992 42.6992 29.3762 42.6992 28.4721 43.2677C27.5686 43.8361 27.0656 45.0907 27.9979 45.5098C29.1338 46.0208 29.5933 45.3122 30.992 45.3122C32.3887 45.3122 32.8523 46.0306 33.9848 45.5098C34.9564 45.0613 34.4141 43.8361 33.5113 43.2677Z" fill="#AB6E5B"/>
</g>
<defs>
<linearGradient id="paint0_linear_723_4347" x1="31.8131" y1="6" x2="31.8131" y2="67.2248" gradientUnits="userSpaceOnUse">
<stop stop-color="#3E253A"/>
<stop offset="1" stop-color="#593D56"/>
</linearGradient>
</defs>
</svg>
