<svg width="64" height="64" viewBox="0 0 64 64" fill="none" xmlns="http://www.w3.org/2000/svg">
<circle cx="32" cy="32" r="32" fill="#C7D3FF"/>
<path d="M47.4577 13.0736V41.4477H18.5865C16.2687 41.4477 14.2355 38.8663 13.0589 34.9666C12.3893 32.7504 12.0042 30.1034 12.0042 27.2583C12.0042 19.4229 14.9509 13.0736 18.5869 13.0736H47.4577Z" fill="#5473E4"/>
<path d="M51.3844 15.8879C50.3245 17.8607 48.9098 19.8387 47.454 21.6187C45.0502 24.5753 42.5553 27.0097 41.4543 28.0441C41.1651 28.313 40.9723 28.4854 40.9015 28.5511C40.8811 28.5662 40.8712 28.5766 40.8712 28.5766V51.727H38.1986C38.1986 51.727 32.6455 52.9594 30.3835 52.9594C28.1216 52.9594 36.6213 52.7566 33.5381 52.7566C30.4549 52.7566 29.628 53.3704 26.996 53.3704C24.3641 53.3704 21.6102 55.0186 18.9376 53.3704C16.265 51.7275 12 51.7275 12 51.7275V27.2583C12 19.4229 14.9467 13.0736 18.5827 13.0736H47.454C48.9249 13.0736 50.2891 14.1231 51.3844 15.8879Z" fill="white"/>
<path d="M54.0331 27.2567C54.0331 35.0869 51.0916 41.4414 47.4555 41.4461H47.4503C44.0222 41.4461 41.2026 35.7815 40.9035 28.5495C40.8832 28.1233 40.8733 27.6923 40.8733 27.2562C40.8733 19.4208 43.8195 13.0715 47.4508 13.0715H47.456C48.9265 13.0715 50.2907 14.1214 51.3864 15.8858C52.9935 18.4734 54.0331 22.6014 54.0331 27.2567Z" fill="#96ADFF"/>
<path d="M50.4302 27.2589C50.4302 30.8029 49.0991 33.6791 47.4533 33.681H47.4509C45.8991 33.681 44.6233 31.1171 44.4877 27.8439C44.4787 27.6511 44.474 27.456 44.474 27.2585C44.474 23.7122 45.8075 20.8387 47.4509 20.8387H47.4533C48.119 20.8387 48.7362 21.3136 49.2323 22.1127C49.9595 23.2836 50.4302 25.1519 50.4302 27.2589Z" fill="#5473E4"/>
</svg>
