<svg width="64" height="64" viewBox="0 0 64 64" fill="none" xmlns="http://www.w3.org/2000/svg">
<circle cx="32" cy="32" r="32" fill="#C7D3FF"/>
<mask id="mask0_702_11095" style="mask-type:alpha" maskUnits="userSpaceOnUse" x="0" y="0" width="64" height="64">
<circle cx="32" cy="32" r="32" fill="#C7D3FF"/>
</mask>
<g mask="url(#mask0_702_11095)">
<path d="M13.8997 56.5H31.4661H50.7912C53.4258 56.5 55.6346 54.4765 55.8967 51.8549C56.1552 49.2701 56.1025 46.6408 55.7351 44.0692C55.5343 42.6637 55.1242 41.2955 54.5043 40.0182C53.0972 37.1189 52.0085 34.8393 52.0085 32.2486V25.3273C52.0085 23.4801 51.8581 21.6157 51.2425 19.874C47.348 8.85598 36.5018 6 31.4661 6C20.7064 6 15.0467 14.1044 12.8705 19.8937C12.2205 21.6228 12.065 23.4801 12.065 25.3273V32.2486C12.065 34.34 11.2913 36.5254 10.3696 38.3491C9.11243 40.8361 7.94663 43.437 7.71521 46.2141L7.64545 47.0512C7.54863 48.213 7.54326 49.3806 7.62938 50.5433L7.64002 50.6869C7.88281 53.9646 10.613 56.5 13.8997 56.5Z" fill="url(#paint0_linear_702_11095)"/>
<path d="M47.195 56.4998H38.8984H15.1134C14.2854 54.9142 14.1579 53.3123 14.3173 51.9902C14.5351 50.1832 16.0438 48.8232 16.5809 47.0841C16.7637 46.4924 16.8675 45.8753 16.9322 45.29C17.0504 44.2223 16.7951 43.1559 16.5027 42.1222C15.3208 37.943 16.3452 33.4857 16.9192 31.963L45.4503 31.6777C48.4562 36.1355 47.2164 41.9374 45.758 45.2751C45.3068 46.3076 44.905 47.3836 44.9119 48.5104C44.9371 52.6209 46.3818 55.493 47.195 56.4998Z" fill="#3C273A"/>
<path d="M23.5 48H38.5V61H23.5V48Z" fill="#B97B67"/>
<path d="M17.1908 31.7956C21.898 28.9072 28.0153 22.5104 30.9671 19.1294C31.2179 18.842 31.6728 18.8711 31.8961 19.1804C35.0692 23.5761 42.2232 29.2506 45.5114 31.7931C45.6513 31.9013 45.7305 32.0659 45.7305 32.2428V36.4078C45.7305 39.6826 45.2003 43.0692 43.0832 45.5677C39.183 50.1704 33.8885 51.5731 31.4649 51.6488C26.6597 51.5032 22.7601 48.7178 20.1219 45.8557C17.6609 43.1859 16.9141 39.4834 16.9141 35.8523V32.288C16.9141 32.0862 17.0188 31.9012 17.1908 31.7956Z" fill="#DEA392"/>
<g style="mix-blend-mode:hard-light">
<path d="M17.1908 31.7956C21.898 28.9072 28.0153 22.5104 30.9671 19.1294C31.2179 18.842 31.6728 18.8711 31.8961 19.1804C35.0692 23.5761 42.2232 29.2506 45.5114 31.7931C45.6513 31.9013 45.7305 32.0659 45.7305 32.2428V36.4078C45.7305 39.6826 45.2003 43.0692 43.0832 45.5677C39.183 50.1704 33.8885 51.573 31.4649 51.6488C26.6597 51.5032 22.7601 48.7178 20.1219 45.8557C17.6609 43.1859 16.9141 39.4834 16.9141 35.8523V32.288C16.9141 32.0862 17.0188 31.9012 17.1908 31.7956Z" fill="url(#paint1_linear_702_11095)"/>
</g>
<path d="M36.751 28.1484C38.2352 28.0334 40.0221 28.2489 41.3965 29.2793C41.7747 29.5629 41.851 30.1003 41.5674 30.4785C41.2837 30.8564 40.7472 30.9329 40.3691 30.6494C39.4611 29.9686 38.1565 29.7567 36.8828 29.8555C36.2587 29.9039 35.6774 30.0246 35.209 30.1768C34.7176 30.3365 34.4286 30.5049 34.3223 30.6006C33.971 30.9167 33.4305 30.8883 33.1143 30.5371C32.798 30.1857 32.8264 29.6444 33.1777 29.3281C33.5469 28.996 34.1025 28.7367 34.6807 28.5488C35.282 28.3535 35.9965 28.2069 36.751 28.1484Z" fill="#BF7362"/>
<path d="M30.039 40.5205V33.5625C30.039 31.864 29.45 30.6168 28.3281 30.3125C26.9163 29.9295 25.0149 29.8809 23.1767 30.4932C22.7283 30.6425 22.2432 30.4005 22.0937 29.9521C21.9444 29.5036 22.1872 29.0185 22.6357 28.8691C24.8147 28.1434 27.0613 28.1949 28.7764 28.6601C31.0978 29.2899 31.7509 31.6932 31.751 33.5625V40.5205C31.7508 40.9931 31.3671 41.376 30.8945 41.376C30.4221 41.3757 30.0392 40.993 30.039 40.5205Z" fill="#BF7362"/>
<path d="M20.9062 33.1035C22.6181 34.2448 25.1859 35.1007 27.7537 33.1035" stroke="#532A32" stroke-width="1.45" stroke-linecap="round"/>
<path d="M34.0312 33.1035C35.7431 34.2448 38.3109 35.1007 40.8787 33.1035" stroke="#532A32" stroke-width="1.45" stroke-linecap="round"/>
<path d="M38.4808 51.9661L54.4099 56.1251L50.4311 67.2249L12.5009 67.2249L8.49737 56.1249L23.4808 51.9661C22.904 59.1778 31.0317 59.3272 31.0317 59.3272C31.0317 59.3272 39.1293 59.1731 38.4808 51.9661Z" fill="#E9EEFF"/>
<path d="M45.294 5.86621C45.9202 5.77676 46.5003 6.2117 46.5899 6.83789C46.8466 8.63481 46.3217 10.1677 45.5557 11.3486C44.7005 12.667 43.31 13.2563 42.2451 13.6934C41.0618 14.1791 40.2146 14.5071 39.6338 15.1377C39.3095 15.49 39.1587 15.9508 39.1465 16.4873C39.1341 17.0341 39.2706 17.5922 39.4463 18.0078C39.6928 18.5904 39.4205 19.2633 38.8379 19.5098C38.2553 19.7561 37.5834 19.4829 37.3369 18.9004C37.0586 18.2424 36.8345 17.3622 36.8555 16.4355C36.8767 15.4984 37.1531 14.4493 37.9492 13.585C38.952 12.4965 40.3708 11.9864 41.375 11.5742C42.4976 11.1135 43.217 10.7449 43.6338 10.1025C44.1642 9.28492 44.4851 8.3021 44.3223 7.16211C44.2328 6.53585 44.6677 5.95568 45.294 5.86621Z" fill="#E34D4E"/>
<path d="M49.1121 8.41167C49.7384 8.32222 50.3185 8.75716 50.408 9.38335C50.6647 11.1803 50.1398 12.7132 49.3739 13.8941C48.5187 15.2125 47.1282 15.8017 46.0633 16.2388C44.8799 16.7245 44.0328 17.0526 43.452 17.6832C43.1276 18.0354 42.9768 18.4963 42.9647 19.0328C42.9523 19.5796 43.0887 20.1377 43.2645 20.5533C43.511 21.1359 43.2387 21.8087 42.6561 22.0552C42.0735 22.3015 41.4016 22.0284 41.1551 21.4458C40.8768 20.7878 40.6527 19.9077 40.6737 18.981C40.6949 18.0439 40.9713 16.9948 41.7674 16.1304C42.7702 15.042 44.189 14.5318 45.1932 14.1197C46.3158 13.6589 47.0352 13.2904 47.452 12.648C47.9823 11.8304 48.3033 10.8476 48.1405 9.70757C48.051 9.08131 48.4859 8.50113 49.1121 8.41167Z" fill="#E34D4E"/>
<path d="M16.5 30C16.5 30 8.625 41 16.5 41C24.375 41 16.5 30 16.5 30Z" fill="white"/>
</g>
<defs>
<linearGradient id="paint0_linear_702_11095" x1="31.8941" y1="6" x2="31.8941" y2="56.5" gradientUnits="userSpaceOnUse">
<stop stop-color="#3E253A"/>
<stop offset="1" stop-color="#593D56"/>
</linearGradient>
<linearGradient id="paint1_linear_702_11095" x1="31.3223" y1="18.5527" x2="31.3223" y2="51.6488" gradientUnits="userSpaceOnUse">
<stop stop-color="#CA4646"/>
<stop offset="1" stop-color="#E2AA98"/>
</linearGradient>
</defs>
</svg>
