<svg width="64" height="64" viewBox="0 0 64 64" fill="none" xmlns="http://www.w3.org/2000/svg">
<circle cx="32" cy="32" r="32" fill="#C7D3FF"/>
<mask id="mask0_702_11086" style="mask-type:alpha" maskUnits="userSpaceOnUse" x="0" y="0" width="64" height="64">
<circle cx="32" cy="32" r="32" fill="#C7D3FF"/>
</mask>
<g mask="url(#mask0_702_11086)">
<path d="M7.98997 -1C10.1031 4.40803 10.8833 9.0774 11.1952 12.3146C11.5059 15.5365 11.8011 18.5988 10.9487 22.4236C9.92367 27.0224 8.13008 28.7277 6.26409 32.7792C3.67527 38.3995 3.29246 43.3045 3.05885 47.8197C2.33221 61.8495 8.52432 72.9132 11.1955 77.1608C25.4961 77.1608 39.7971 77.1608 54.0977 77.1608C56.6024 73.474 61.7065 64.8472 61.9879 52.9976C62.2004 44.0405 59.5697 36.9453 58.0428 33.519C56.0921 29.1413 54.8979 28.3036 53.3582 25.1359C50.952 20.1863 49.0523 12.2243 52.3718 -0.506973C37.5779 -0.67112 22.7839 -0.835561 7.98997 -1Z" fill="#DEA392"/>
<mask id="mask1_702_11086" style="mask-type:luminance" maskUnits="userSpaceOnUse" x="3" y="-1" width="59" height="79">
<path d="M7.98997 -1C10.1031 4.40803 10.8833 9.0774 11.1952 12.3146C11.5059 15.5365 11.8011 18.5988 10.9487 22.4236C9.92367 27.0224 8.13008 28.7277 6.26409 32.7792C3.67527 38.3995 3.29246 43.3045 3.05885 47.8197C2.33221 61.8495 8.52432 72.9132 11.1955 77.1608C25.4961 77.1608 39.7971 77.1608 54.0977 77.1608C56.6024 73.474 61.7065 64.8472 61.9879 52.9976C62.2004 44.0405 59.5697 36.9453 58.0428 33.519C56.0921 29.1413 54.8979 28.3036 53.3582 25.1359C50.952 20.1863 49.0523 12.2243 52.3718 -0.506973C37.5779 -0.67112 22.7839 -0.835561 7.98997 -1Z" fill="white"/>
</mask>
<g mask="url(#mask1_702_11086)">
<g opacity="0.14">
<path d="M31.9813 55.3736C31.8561 56.5215 31.6996 57.6646 31.5595 58.8101L31.087 62.2387C30.7724 64.5247 30.4078 66.8008 30.137 69.0851C29.9945 70.2262 29.874 71.3696 29.7926 72.5149C29.695 73.6595 29.6589 74.807 29.6422 75.9543C29.6199 78.25 29.8233 80.5466 30.2733 82.8118C29.9532 81.7026 29.7117 80.5686 29.5414 79.4225C29.3939 78.2743 29.2866 77.1177 29.2629 75.9584C29.192 73.6392 29.374 71.3213 29.6478 69.0256C29.9327 66.7293 30.3105 64.4506 30.7138 62.1795L31.322 58.7726C31.5425 57.6397 31.7465 56.5042 31.9813 55.3736Z" fill="#4E2328"/>
</g>
</g>
<mask id="mask2_702_11086" style="mask-type:luminance" maskUnits="userSpaceOnUse" x="3" y="-1" width="59" height="79">
<path d="M7.98997 -1C10.1031 4.40803 10.8833 9.0774 11.1952 12.3146C11.5059 15.5365 11.8011 18.5988 10.9487 22.4236C9.92367 27.0224 8.13008 28.7277 6.26409 32.7792C3.67527 38.3995 3.29246 43.3045 3.05885 47.8197C2.33221 61.8495 8.52432 72.9132 11.1955 77.1608C25.4961 77.1608 39.7971 77.1608 54.0977 77.1608C56.6024 73.474 61.7065 64.8472 61.9879 52.9976C62.2004 44.0405 59.5697 36.9453 58.0428 33.519C56.0921 29.1413 54.8979 28.3036 53.3582 25.1359C50.952 20.1863 49.0523 12.2243 52.3718 -0.506973C37.5779 -0.67112 22.7839 -0.835561 7.98997 -1Z" fill="white"/>
</mask>
<g mask="url(#mask2_702_11086)">
<g opacity="0.04">
<path d="M29.217 77.2836C28.8673 70.364 31.2826 63.6141 31.8821 56.7114C31.9263 56.2017 31.9597 55.6803 31.8278 55.1861C31.703 54.718 31.4368 54.3014 31.1584 53.9051C28.0305 49.4574 23.0528 46.7448 18.2544 44.1871C15.0589 42.4838 11.846 40.7729 8.41797 39.606C12.7734 43.2556 17.2373 47.0371 19.8888 52.0629C22.6829 57.3584 23.1958 63.5197 23.6554 69.4893C23.9597 73.4391 24.2636 77.3886 24.5679 81.3383" fill="#4E2328"/>
</g>
</g>
<mask id="mask3_702_11086" style="mask-type:luminance" maskUnits="userSpaceOnUse" x="3" y="-1" width="59" height="79">
<path d="M7.98997 -1C10.1031 4.40803 10.8833 9.0774 11.1952 12.3146C11.5059 15.5365 11.8011 18.5988 10.9487 22.4236C9.92367 27.0224 8.13008 28.7277 6.26409 32.7792C3.67527 38.3995 3.29246 43.3045 3.05885 47.8197C2.33221 61.8495 8.52432 72.9132 11.1955 77.1608C25.4961 77.1608 39.7971 77.1608 54.0977 77.1608C56.6024 73.474 61.7065 64.8472 61.9879 52.9976C62.2004 44.0405 59.5697 36.9453 58.0428 33.519C56.0921 29.1413 54.8979 28.3036 53.3582 25.1359C50.952 20.1863 49.0523 12.2243 52.3718 -0.506973C37.5779 -0.67112 22.7839 -0.835561 7.98997 -1Z" fill="white"/>
</mask>
<g mask="url(#mask3_702_11086)">
<g opacity="0.28">
<path d="M29.1039 15.0133C29.3475 15.197 29.5328 15.4441 29.6705 15.7135C29.8118 15.9826 29.9009 16.2783 29.9431 16.58C29.9842 16.8816 29.978 17.1908 29.9144 17.4878C29.854 17.7844 29.7421 18.0722 29.5562 18.3146L29.5307 17.4564C29.514 17.1814 29.4912 16.9135 29.4545 16.6468C29.4188 16.3798 29.3686 16.1157 29.3109 15.8463C29.2499 15.5778 29.176 15.3087 29.1039 15.0133Z" fill="#4E2328"/>
</g>
</g>
<path d="M4.2171 38.6479C8.38758 39.5669 14.6964 41.502 21.2945 45.8739C26.1907 49.1181 29.7002 52.6795 32.0613 55.4899C34.0202 51.8702 38.2176 45.326 46.0333 40.2029C50.795 37.0818 55.3518 35.5028 58.6559 34.6633C57.141 31.7688 55.6197 28.5729 54.17 25.0804C52.9764 22.2049 51.9613 19.4414 51.0955 16.8244C47.583 18.7493 40.8806 21.8238 31.8971 22.3682C22.4913 22.938 15.1873 20.4556 11.4568 18.8912C10.904 22.2711 9.99416 24.8119 9.27573 26.4926C8.28938 28.7998 7.50706 29.8515 6.31582 32.6211C5.23451 35.1349 4.58819 37.2709 4.2171 38.6479Z" fill="#5473E4"/>
<mask id="mask4_702_11086" style="mask-type:luminance" maskUnits="userSpaceOnUse" x="4" y="16" width="55" height="40">
<path d="M4.216 38.6481C8.38649 39.567 14.6953 41.5022 21.2934 45.874C26.1896 49.1183 29.6991 52.6796 32.0602 55.4901C34.0191 51.8703 38.2165 45.3262 46.0322 40.2031C50.7939 37.0819 55.3507 35.5029 58.6548 34.6634C57.1399 31.7689 55.6186 28.573 54.1689 25.0805C52.9753 22.205 51.9602 19.4415 51.0944 16.8246C47.5819 18.7495 40.8795 21.824 31.896 22.3683C22.4902 22.9381 15.1862 20.4557 11.4557 18.8913C10.9029 22.2713 9.99306 24.812 9.27463 26.4928C8.28829 28.7999 7.50596 29.8516 6.31472 32.6213C5.23341 35.1351 4.58709 37.271 4.216 38.6481Z" fill="white"/>
</mask>
<g mask="url(#mask4_702_11086)">
<path opacity="0.04" d="M41.7315 43.3787C41.3698 43.6492 40.9999 43.906 40.6244 44.1513C40.4257 44.2375 40.2302 44.3574 40.0408 44.5084C37.688 45.932 35.0871 46.848 32.2911 47.0215C30.7129 47.1194 29.1269 47.0265 27.5827 46.6803C27.1093 46.5742 26.6494 46.4459 26.1942 46.3151C24.8298 45.6594 23.424 45.1676 22.1249 44.3518C19.2022 42.5163 15.9805 41.6414 12.9192 40.0864C9.65709 38.4291 6.23729 37.7719 2.64278 37.2639C-0.461046 36.8254 -1.80235 41.5763 1.33196 42.0192C3.5447 42.3317 5.79263 42.6262 7.92858 43.3101C9.87665 43.9335 11.5562 45.0659 13.431 45.8555C15.1868 46.5948 16.9534 46.9447 18.6007 47.934C19.053 48.2057 19.5029 48.4581 19.9526 48.7029C19.9828 48.8398 20.0238 48.9731 20.0748 49.1024C20.2164 49.9228 20.727 50.689 21.6984 51.0575C23.4562 51.7243 25.2586 52.4606 27.0982 53.031C26.4668 54.0959 26.5416 55.5267 27.9626 56.2512C30.9885 57.7945 34.1363 59.0634 37.394 60.0254C40.4439 60.9262 41.7465 56.1686 38.7048 55.2702C37.7267 54.9812 36.7676 54.6543 35.8161 54.309C36.7749 53.918 37.6815 53.328 38.5448 52.6447C39.5117 52.2584 40.4623 51.824 41.4003 51.3899C42.5778 50.8453 42.8536 49.8117 42.5731 48.8711C42.7062 48.7424 42.8348 48.627 42.9656 48.5041C43.3918 48.2301 43.8109 47.9428 44.2198 47.6371C46.7321 45.7582 44.2767 41.4752 41.7315 43.3787Z" fill="#4E2328"/>
</g>
<path d="M37.6754 37.9005C37.6754 41.948 34.6882 45.229 31.0032 45.229C27.3182 45.229 24.3309 41.948 24.3309 37.9005C24.3309 33.9701 27.8976 29.4256 29.8155 27.266C30.4577 26.5429 31.5486 26.5429 32.1909 27.266C34.1088 29.4256 37.6754 33.97 37.6754 37.9005Z" fill="white"/>
<path d="M22.9989 30.004L37.233 44.2381" stroke="white" stroke-width="2.44649" stroke-linecap="round"/>
<path d="M24.7802 28.6701L39.0143 42.9042" stroke="#5473E4" stroke-width="2.44649" stroke-linecap="round"/>
</g>
</svg>
