<svg width="64" height="64" viewBox="0 0 64 64" fill="none" xmlns="http://www.w3.org/2000/svg">
<path d="M32 64C49.6731 64 64 49.6731 64 32C64 14.3269 49.6731 0 32 0C14.3269 0 0 14.3269 0 32C0 49.6731 14.3269 64 32 64Z" fill="#F9DC30"/>
<path d="M50.0487 46.3012C49.7976 46.3012 49.5446 46.2189 49.3337 46.0492C43.8943 41.6824 36.916 40.7657 32.0205 40.7657C27.1245 40.7657 20.1467 41.6824 14.7073 46.0492C14.2156 46.4444 13.4955 46.3662 13.0994 45.8735C12.7042 45.3808 12.7828 44.6613 13.2755 44.2661C17.9913 40.4798 24.4732 38.4785 32.0205 38.4785C39.5678 38.4785 46.0498 40.4798 50.7655 44.2661C51.2582 44.6613 51.3369 45.3813 50.9417 45.8735C50.7152 46.1548 50.3836 46.3012 50.0487 46.3012Z" fill="black"/>
<path d="M13.6419 21.4648C12.646 23.1153 12.0742 25.0452 12.0742 26.983C12.0742 32.0907 16.0398 35.8454 21.2999 35.8454C26.56 35.8454 30.3719 32.0907 30.3719 26.983C30.3719 26.8823 30.3677 26.7821 30.365 26.682L13.6419 21.4648Z" fill="white"/>
<path d="M21.1746 31.6526C22.3873 31.6526 23.3703 30.6695 23.3703 29.4569C23.3703 28.2442 22.3873 27.2611 21.1746 27.2611C19.962 27.2611 18.9789 28.2442 18.9789 29.4569C18.9789 30.6695 19.962 31.6526 21.1746 31.6526Z" fill="black"/>
<path d="M33.6753 26.685C33.6721 26.7852 33.668 26.8858 33.668 26.9865C33.668 32.0942 37.6335 35.8489 42.8937 35.8489C48.1538 35.8489 51.9656 32.0942 51.9656 26.9865C51.9656 25.0437 51.413 23.1083 50.4396 21.4551L33.6753 26.685Z" fill="white"/>
<path d="M42.869 31.6537C44.0816 31.6537 45.0647 30.6706 45.0647 29.458C45.0647 28.2453 44.0816 27.2622 42.869 27.2622C41.6563 27.2622 40.6733 28.2453 40.6733 29.458C40.6733 30.6706 41.6563 31.6537 42.869 31.6537Z" fill="black"/>
<path d="M15.9727 16.9697L29.3271 21.1484C29.4297 21.1805 29.4958 21.2602 29.5352 21.3428C29.5744 21.4252 29.5943 21.5251 29.6016 21.6289C29.6162 21.8375 29.5812 22.0977 29.498 22.3633C29.415 22.6286 29.2959 22.8623 29.165 23.0254C29.0999 23.1064 29.0263 23.1763 28.9473 23.2217C28.868 23.2671 28.7685 23.2956 28.666 23.2637L15.3115 19.084C15.2089 19.0519 15.1428 18.9723 15.1035 18.8896C15.0644 18.8073 15.0444 18.7082 15.0371 18.6045C15.0224 18.3958 15.0575 18.1349 15.1406 17.8691C15.2238 17.6036 15.3436 17.37 15.4746 17.207C15.5397 17.1261 15.6124 17.0561 15.6914 17.0107C15.7708 16.9653 15.8701 16.9377 15.9727 16.9697Z" fill="black" stroke="black" stroke-width="0.3"/>
<path d="M47.666 16.9697C47.7686 16.9377 47.8679 16.9653 47.9473 17.0107C48.0263 17.0561 48.0999 17.126 48.165 17.207C48.2959 17.37 48.4149 17.6038 48.498 17.8691C48.5812 18.1349 48.6162 18.3958 48.6016 18.6045C48.5942 18.7082 48.5743 18.8073 48.5352 18.8896C48.4958 18.9723 48.4298 19.0519 48.3271 19.084L34.9727 23.2637C34.8701 23.2956 34.7707 23.2671 34.6914 23.2217C34.6124 23.1763 34.5387 23.1064 34.4736 23.0254C34.3427 22.8623 34.2237 22.6285 34.1406 22.3633C34.0575 22.0977 34.0225 21.8375 34.0371 21.6289C34.0444 21.5251 34.0643 21.4252 34.1035 21.3428C34.1428 21.2602 34.209 21.1805 34.3115 21.1484L47.666 16.9697Z" fill="black" stroke="black" stroke-width="0.3"/>
</svg>
