<svg width="64" height="64" viewBox="0 0 64 64" fill="none" xmlns="http://www.w3.org/2000/svg">
<path d="M32 64C49.6731 64 64 49.6731 64 32C64 14.3269 49.6731 0 32 0C14.3269 0 0 14.3269 0 32C0 49.6731 14.3269 64 32 64Z" fill="#F9DC30"/>
<path d="M44.2037 48.8612C42.2791 48.8612 41.311 47.6142 40.5327 46.6125C39.779 45.6417 39.3057 45.0926 38.35 45.0926C37.3946 45.0926 36.9213 45.6417 36.1676 46.6125C35.3898 47.6142 34.4216 48.8612 32.497 48.8612C30.5724 48.8612 29.6046 47.6142 28.8264 46.6125C28.0727 45.6417 27.5997 45.0926 26.6444 45.0926C25.6894 45.0926 25.2168 45.6417 24.4635 46.6125C23.6857 47.6142 22.7179 48.8612 20.794 48.8612C18.8698 48.8612 17.9016 47.6142 17.1238 46.6125C16.3701 45.6417 15.8971 45.0926 14.9418 45.0926C14.4213 45.0926 13.9996 44.6709 13.9996 44.1505C13.9996 43.63 14.4213 43.2083 14.9418 43.2083C16.8664 43.2083 17.8342 44.4554 18.612 45.457C19.3657 46.4278 19.8387 46.9769 20.794 46.9769C21.749 46.9769 22.2216 46.4278 22.9749 45.457C23.7527 44.4554 24.7205 43.2083 26.6444 43.2083C28.569 43.2083 29.5368 44.4554 30.315 45.457C31.0687 46.4278 31.5416 46.9769 32.497 46.9769C33.4527 46.9769 33.9257 46.4278 34.6794 45.457C35.4576 44.4554 36.4254 43.2083 38.35 43.2083C40.2746 43.2083 41.2428 44.4554 42.021 45.457C42.7747 46.4278 43.248 46.9769 44.2037 46.9769C45.1594 46.9769 45.6328 46.4278 46.3865 45.457C47.1647 44.4554 48.1329 43.2083 50.0575 43.2083C50.5779 43.2083 50.9996 43.63 50.9996 44.1505C50.9996 44.6709 50.5779 45.0926 50.0575 45.0926C49.1018 45.0926 48.6284 45.6417 47.8747 46.6125C47.0965 47.6142 46.1284 48.8612 44.2037 48.8612Z" fill="black"/>
<path d="M12.1155 19.719C12.333 19.5935 12.5932 19.5383 12.8611 19.5796C14.7871 19.8763 16.6389 19.103 17.8535 18.4018C19.0677 17.7008 20.6637 16.4835 21.3698 14.6671C21.5982 14.0784 22.2613 13.7869 22.8501 14.0153C23.4391 14.2441 23.7303 14.9069 23.5019 15.4956C22.7524 17.4243 21.1948 19.1142 18.9974 20.383C16.7999 21.6517 14.5577 22.156 12.5125 21.8403C11.8887 21.7442 11.4602 21.1602 11.5565 20.5357C11.6113 20.1786 11.8259 19.8862 12.1155 19.719Z" fill="black"/>
<path d="M51.872 19.719C51.6545 19.5935 51.3943 19.5383 51.1264 19.5796C49.2004 19.8763 47.3486 19.103 46.134 18.4018C44.9198 17.7008 43.3238 16.4835 42.6178 14.6671C42.3894 14.0784 41.7263 13.7869 41.1375 14.0153C40.5485 14.2441 40.2572 14.9069 40.4857 15.4956C41.2352 17.4243 42.7927 19.1142 44.9902 20.383C47.1877 21.6517 49.4298 22.156 51.475 21.8403C52.0989 21.7442 52.5274 21.1602 52.4311 20.5357C52.3762 20.1786 52.1616 19.8862 51.872 19.719Z" fill="black"/>
<path d="M0 31.9573C0 28.1557 6.88308 20 6.88308 20C6.88308 20 13.7662 28.1557 13.7662 31.9573C13.7662 35.7589 10.6847 38.8404 6.88308 38.8404C3.08145 38.8404 0 35.7589 0 31.9573Z" fill="#6AB9FF"/>
<path d="M23.2864 22C27.4409 22 30.4515 25.9958 30.4515 30.03C30.4515 34.0641 27.4405 37.0295 23.2864 37.0295C19.132 37.0295 16 34.0641 16 30.03C16 25.9962 19.132 22 23.2864 22Z" fill="white"/>
<path d="M23.2258 31.2499C24.1835 31.2499 24.9599 30.4735 24.9599 29.5158C24.9599 28.558 24.1835 27.7816 23.2258 27.7816C22.268 27.7816 21.4916 28.558 21.4916 29.5158C21.4916 30.4735 22.268 31.2499 23.2258 31.2499Z" fill="black"/>
<path d="M40.2864 22C44.4409 22 47.4515 25.9958 47.4515 30.03C47.4515 34.0641 44.4405 37.0295 40.2864 37.0295C36.132 37.0295 33 34.0641 33 30.03C33 25.9962 36.132 22 40.2864 22Z" fill="white"/>
<path d="M40.2264 31.2496C41.1841 31.2496 41.9605 30.4732 41.9605 29.5154C41.9605 28.5577 41.1841 27.7812 40.2264 27.7812C39.2686 27.7812 38.4922 28.5577 38.4922 29.5154C38.4922 30.4732 39.2686 31.2496 40.2264 31.2496Z" fill="black"/>
</svg>
