<svg width="64" height="64" viewBox="0 0 64 64" fill="none" xmlns="http://www.w3.org/2000/svg">
<path d="M32 64C49.6731 64 64 49.6731 64 32C64 14.3269 49.6731 0 32 0C14.3269 0 0 14.3269 0 32C0 49.6731 14.3269 64 32 64Z" fill="#F9DC30"/>
<path d="M50.71 33.4326C50.8945 32.7784 51.5753 32.3975 52.2295 32.582C52.8834 32.7667 53.2636 33.4465 53.0791 34.1006C50.0247 44.9289 40.4262 49.591 31.2168 49.25C22.061 48.9109 12.8503 43.6001 10.6025 34.0479C10.4472 33.3865 10.8572 32.7241 11.5186 32.5684C12.1802 32.4127 12.8433 32.8228 12.999 33.4844C14.9171 41.6358 22.8898 46.4792 31.3076 46.791C39.6716 47.1008 48.0362 42.9111 50.71 33.4326ZM22.7422 20.2441C25.7817 20.1315 29.0739 21.6858 30.1172 25.3848C30.3017 26.039 29.9208 26.7188 29.2666 26.9033C28.6125 27.0877 27.9325 26.7069 27.748 26.0527C27.0855 23.7039 25.0279 22.6229 22.834 22.7041C20.5861 22.7874 18.646 24.0653 18.1904 26.001C18.0346 26.6625 17.3716 27.0727 16.71 26.917C16.0484 26.7612 15.6382 26.0981 15.7939 25.4365C16.5792 22.1004 19.7566 20.3549 22.7422 20.2441ZM41.0391 20.2441C44.0786 20.1315 47.3708 21.6858 48.4141 25.3848C48.5985 26.039 48.2177 26.7188 47.5635 26.9033C46.9093 27.0877 46.2294 26.7069 46.0449 26.0527C45.3824 23.7039 43.3248 22.6229 41.1309 22.7041C38.883 22.7874 36.9429 24.0653 36.4873 26.001C36.3315 26.6625 35.6684 27.0727 35.0068 26.917C34.3453 26.7612 33.9351 26.0981 34.0908 25.4365C34.8761 22.1004 38.0535 20.3549 41.0391 20.2441Z" fill="black"/>
</svg>
