<svg width="64" height="64" viewBox="0 0 64 64" fill="none" xmlns="http://www.w3.org/2000/svg">
<path d="M32 64C49.6731 64 64 49.6731 64 32C64 14.3269 49.6731 0 32 0C14.3269 0 0 14.3269 0 32C0 49.6731 14.3269 64 32 64Z" fill="#F9DC30"/>
<path d="M28.9443 22.5332H10.6663C10.6608 22.6695 10.6562 22.8063 10.6562 22.9426C10.6562 28.0504 14.6218 31.8051 19.8819 31.8051C25.142 31.8051 28.9539 28.0504 28.9539 22.9426C28.9539 22.8063 28.9498 22.6695 28.9443 22.5332Z" fill="white"/>
<path d="M19.8044 24.486C20.9338 24.486 21.8533 23.6301 21.9754 22.5332H17.6334C17.7555 23.6301 18.675 24.486 19.8044 24.486Z" fill="black"/>
<path d="M53.3779 22.5332H42.0672H35.0999C35.0944 22.6695 35.0898 22.8063 35.0898 22.9426C35.0898 28.0504 39.0554 31.8051 44.3155 31.8051C49.5756 31.8051 53.3875 28.0504 53.3875 22.9426C53.387 22.8063 53.3829 22.6695 53.3779 22.5332Z" fill="white"/>
<path d="M44.2384 24.486C45.3678 24.486 46.2873 23.6301 46.4094 22.5332H42.0672C42.1898 23.6301 43.109 24.486 44.2384 24.486Z" fill="black"/>
<path d="M29.5 20.25C30.1904 20.25 30.75 20.8096 30.75 21.5C30.75 22.1904 30.1904 22.75 29.5 22.75H10C9.30964 22.75 8.75 22.1904 8.75 21.5C8.75 20.8096 9.30964 20.25 10 20.25H29.5Z" fill="black"/>
<path d="M54.5 20.25C55.1904 20.25 55.75 20.8096 55.75 21.5C55.75 22.1904 55.1904 22.75 54.5 22.75H35C34.3096 22.75 33.75 22.1904 33.75 21.5C33.75 20.8096 34.3096 20.25 35 20.25H54.5Z" fill="black"/>
<path d="M17.4386 43.7953C22.2198 41.9385 34.6576 39.4991 47.0179 44.2631C47.7907 44.5611 48.1756 45.4294 47.8777 46.2023C47.5796 46.975 46.7114 47.36 45.9385 47.0621C34.4472 42.6331 22.8038 44.9305 18.5256 46.5919C17.7533 46.8918 16.8842 46.5089 16.5843 45.7366C16.2845 44.9645 16.6666 44.0954 17.4386 43.7953Z" fill="black"/>
</svg>
