<svg width="64" height="64" viewBox="0 0 64 64" fill="none" xmlns="http://www.w3.org/2000/svg">
<path d="M32 64C49.6731 64 64 49.6731 64 32C64 14.3269 49.6731 0 32 0C14.3269 0 0 14.3269 0 32C0 49.6731 14.3269 64 32 64Z" fill="#F9DC30"/>
<path d="M17.726 33.5179C17.726 34.5354 14.8399 35.36 11.279 35.36C7.71881 35.36 4.83203 34.5354 4.83203 33.5179C4.83203 32.5003 7.71819 31.6758 11.279 31.6758C14.8392 31.6758 17.726 32.5003 17.726 33.5179Z" fill="#E5565A"/>
<path d="M59.1674 33.5179C59.1674 34.5354 56.2813 35.36 52.7204 35.36C49.1596 35.36 46.2734 34.5354 46.2734 33.5179C46.2734 32.5003 49.1596 31.6758 52.7204 31.6758C56.2813 31.6758 59.1674 32.5003 59.1674 33.5179Z" fill="#E5565A"/>
<path d="M22.7386 22.4454C25.6989 22.3357 28.8756 23.8457 29.8832 27.418C30.0331 27.9496 29.7233 28.5025 29.1918 28.6524C28.6603 28.8022 28.1083 28.4924 27.9584 27.961C27.2601 25.4854 25.0862 24.3592 22.8128 24.4434C20.4958 24.5293 18.4399 25.852 17.9535 27.919C17.8268 28.4564 17.2878 28.7896 16.7503 28.6631C16.2129 28.5365 15.8797 27.9975 16.0062 27.46C16.7607 24.2552 19.8222 22.5535 22.7386 22.4454Z" fill="black"/>
<path d="M41.033 22.4454C43.9932 22.3357 47.1699 23.8457 48.1775 27.418C48.3274 27.9496 48.0176 28.5025 47.4861 28.6524C46.9547 28.8022 46.4027 28.4924 46.2527 27.961C45.5545 25.4854 43.3805 24.3592 41.1072 24.4434C38.7902 24.5293 36.7343 25.852 36.2478 27.919C36.1212 28.4564 35.5822 28.7896 35.0447 28.6631C34.5073 28.5365 34.1741 27.9975 34.3006 27.46C35.055 24.2552 38.1165 22.5535 41.033 22.4454Z" fill="black"/>
<path d="M37.0498 39.9121C37.2213 39.3874 37.7857 39.1012 38.3105 39.2725C38.8353 39.444 39.1214 40.0083 38.9502 40.5332C37.8299 43.9661 34.3704 45.3168 31.2783 45.2178C28.2265 45.12 24.8779 43.5809 24.0352 40.4854C23.8901 39.9525 24.2044 39.4029 24.7373 39.2578C25.2702 39.1127 25.8198 39.4271 25.9648 39.96C26.4729 41.8263 28.6958 43.1339 31.3418 43.2188C33.9475 43.3022 36.3128 42.171 37.0498 39.9121Z" fill="black"/>
</svg>
