<svg width="64" height="64" viewBox="0 0 64 64" fill="none" xmlns="http://www.w3.org/2000/svg">
<path d="M32 64C49.6731 64 64 49.6731 64 32C64 14.3269 49.6731 0 32 0C14.3269 0 0 14.3269 0 32C0 49.6731 14.3269 64 32 64Z" fill="#F9DC30"/>
<path d="M32.0966 31.2759C37.3567 31.2759 41.1685 36.8905 41.1685 42.5582C41.1685 48.2264 37.3562 52.3927 32.0966 52.3927C26.8365 52.3927 22.8709 48.2264 22.8709 42.5582C22.8709 36.8905 26.8365 31.2759 32.0966 31.2759Z" fill="black"/>
<path d="M45.6833 30.1958C43.1459 30.1958 40.952 29.511 39.3386 28.2155C38.846 27.8203 38.7673 27.1003 39.163 26.6076C39.5587 26.1145 40.2778 26.0363 40.7709 26.4319C42.2905 27.6524 44.2813 27.9081 45.6833 27.9081C47.0859 27.9081 49.0766 27.6519 50.5958 26.4319C51.088 26.0363 51.808 26.1145 52.2037 26.6076C52.5994 27.0998 52.5207 27.8198 52.028 28.2155C50.4151 29.511 48.2208 30.1958 45.6833 30.1958Z" fill="black"/>
<path d="M18.3584 30.1958C15.821 30.1958 13.6266 29.511 12.0137 28.2155C11.521 27.8203 11.4424 27.1003 11.838 26.6076C12.2333 26.1145 12.9533 26.0363 13.4459 26.4319C14.9656 27.6524 16.9559 27.9081 18.3584 27.9081C19.7605 27.9081 21.7512 27.6519 23.2709 26.4319C23.764 26.0367 24.4831 26.1154 24.8788 26.6076C25.2745 27.1003 25.1958 27.8198 24.7031 28.2155C23.0897 29.511 20.8958 30.1958 18.3584 30.1958Z" fill="black"/>
<path d="M48.8477 17.7903H39.4285C38.966 17.7903 38.5488 17.5117 38.3722 17.0844C38.1952 16.6567 38.2931 16.165 38.6202 15.8379L46.087 8.37065H39.5927C38.961 8.37065 38.4491 7.85878 38.4491 7.22705C38.4491 6.59533 38.961 6.08345 39.5927 6.08345H48.8477C49.3101 6.08345 49.7273 6.36202 49.9043 6.78927C50.0814 7.21652 49.9835 7.70874 49.6564 8.03581L42.1896 15.5031H48.8481C49.4798 15.5031 49.9917 16.0149 49.9917 16.6467C49.9917 17.2784 49.4794 17.7903 48.8477 17.7903Z" fill="black"/>
<path d="M60.8448 11.8928H53.8002C53.3378 11.8928 52.9205 11.6142 52.7435 11.187C52.5665 10.7593 52.6644 10.2675 52.9915 9.94047L58.0837 4.84775H53.9228C53.2911 4.84775 52.7792 4.33588 52.7792 3.70415C52.7792 3.07242 53.2911 2.56055 53.9228 2.56055H60.8448C61.3073 2.56055 61.7245 2.83914 61.9015 3.26639C62.0785 3.6941 61.9806 4.18584 61.6536 4.51291L56.5613 9.6056H60.8453C61.477 9.6056 61.9889 10.1175 61.9889 10.7492C61.9889 11.3809 61.4765 11.8928 60.8448 11.8928Z" fill="black"/>
</svg>
