<svg width="64" height="64" viewBox="0 0 64 64" fill="none" xmlns="http://www.w3.org/2000/svg">
<path d="M32 64C49.6731 64 64 49.6731 64 32C64 14.3269 49.6731 0 32 0C14.3269 0 0 14.3269 0 32C0 49.6731 14.3269 64 32 64Z" fill="#F9DC30"/>
<path d="M44.5727 47.4484C42.4693 47.4484 41.4112 45.9347 40.5607 44.7188C39.7369 43.5405 39.2196 42.874 38.1751 42.874C37.131 42.874 36.6137 43.5405 35.79 44.7188C34.9399 45.9347 33.8818 47.4484 31.7783 47.4484C29.6749 47.4484 28.6172 45.9347 27.7667 44.7188C26.943 43.5405 26.4261 42.874 25.382 42.874C24.3383 42.874 23.8218 43.5405 22.9985 44.7188C22.1484 45.9347 21.0907 47.4484 18.9881 47.4484C16.8851 47.4484 15.827 45.9347 14.9769 44.7188C14.1532 43.5405 13.6363 42.874 12.5922 42.874C12.0234 42.874 11.5625 42.3621 11.5625 41.7304C11.5625 41.0987 12.0234 40.5868 12.5922 40.5868C14.6956 40.5868 15.7533 42.1004 16.6034 43.3163C17.4271 44.4947 17.944 45.1612 18.9881 45.1612C20.0318 45.1612 20.5483 44.4947 21.3716 43.3163C22.2217 42.1004 23.2794 40.5868 25.382 40.5868C27.4854 40.5868 28.5431 42.1004 29.3936 43.3163C30.2174 44.4947 30.7343 45.1612 31.7783 45.1612C32.8229 45.1612 33.3398 44.4947 34.1635 43.3163C35.014 42.1004 36.0717 40.5868 38.1751 40.5868C40.2785 40.5868 41.3367 42.1004 42.1872 43.3163C43.0109 44.4947 43.5282 45.1612 44.5727 45.1612C45.6172 45.1612 46.1345 44.4947 46.9583 43.3163C47.8088 42.1004 48.8669 40.5868 50.9703 40.5868C51.5391 40.5868 52 41.0987 52 41.7304C52 42.3621 51.5391 42.874 50.9703 42.874C49.9258 42.874 49.4085 43.5405 48.5848 44.7188C47.7343 45.9347 46.6761 47.4484 44.5727 47.4484Z" fill="black"/>
<path d="M11.3623 41.7303C11.3623 41.0086 11.8935 40.3868 12.5918 40.3866C14.8117 40.3866 15.9248 41.9966 16.7676 43.202C17.1822 43.7951 17.5034 44.2345 17.8438 44.5292C18.1732 44.8143 18.5182 44.9608 18.9883 44.9608L18.9881 45.1612L18.7979 45.1532C18.0008 45.0858 17.5168 44.5854 16.8994 43.7342L16.6034 43.3163C15.7533 42.1004 14.6956 40.5868 12.5922 40.5868C12.0234 40.5868 11.5625 41.0987 11.5625 41.7304C11.5625 42.3621 12.0234 42.874 12.5922 42.874C13.6363 42.874 14.1532 43.5405 14.9769 44.7188C15.8004 45.8967 16.8192 47.3542 18.7939 47.4442L18.9881 47.4484C21.0907 47.4484 22.1484 45.9347 22.9985 44.7188C23.8218 43.5405 24.3383 42.874 25.382 42.874C26.4261 42.874 26.943 43.5405 27.7667 44.7188C28.6172 45.9347 29.6749 47.4484 31.7783 47.4484C33.6188 47.4484 34.6592 46.2897 35.46 45.1854L35.79 44.7188C36.6137 43.5405 37.131 42.874 38.1751 42.874C39.2196 42.874 39.7369 43.5405 40.5607 44.7188C41.4112 45.9347 42.4693 47.4484 44.5727 47.4484C46.4133 47.4484 47.4538 46.2897 48.2549 45.1854L48.5848 44.7188C49.3569 43.6143 49.86 42.9593 50.7803 42.8817L50.9703 42.874C51.5033 42.8738 51.9424 42.4241 51.9951 41.8475L52 41.7304C52 41.138 51.5947 40.651 51.0752 40.5926L50.9703 40.5868C48.8669 40.5868 47.8088 42.1004 46.9583 43.3163C46.1345 44.4947 45.6172 45.1612 44.5727 45.1612L44.5723 44.9608C45.0426 44.9608 45.3882 44.8143 45.7178 44.5292C46.0583 44.2345 46.3794 43.7951 46.7939 43.202C47.6371 41.9966 48.7509 40.3866 50.9707 40.3866C51.669 40.3868 52.2002 41.0086 52.2002 41.7303C52.2002 42.4521 51.669 43.0739 50.9707 43.0741C50.5004 43.0741 50.1548 43.2206 49.8252 43.5057C49.4846 43.8005 49.1638 44.2405 48.749 44.8338C47.9059 46.0392 46.7921 47.6483 44.5723 47.6483C42.3528 47.6481 41.2396 46.0391 40.3965 44.8338C39.9818 44.2406 39.6609 43.8005 39.3203 43.5057C38.9908 43.2206 38.6451 43.0741 38.1748 43.0741C37.705 43.0741 37.3606 43.2208 37.0312 43.5057C36.6906 43.8005 36.3689 44.2404 35.9541 44.8338C35.1113 46.0392 33.9981 47.6483 31.7783 47.6483C29.5585 47.6483 28.4457 46.0392 27.6025 44.8338C27.1877 44.2405 26.8669 43.8005 26.5264 43.5057C26.197 43.2206 25.8519 43.0741 25.3818 43.0741C24.9121 43.0741 24.5674 43.2207 24.2383 43.5057C23.898 43.8005 23.5767 44.2405 23.1621 44.8338C22.3194 46.0391 21.207 47.6482 18.9883 47.6483C16.7691 47.6483 15.6562 46.0392 14.8135 44.8338C14.3986 44.2404 14.0769 43.8005 13.7363 43.5057C13.4069 43.2206 13.0619 43.0741 12.5918 43.0741C11.8935 43.0739 11.3623 42.4521 11.3623 41.7303ZM25.3818 40.3866C27.6017 40.3866 28.7145 41.9967 29.5576 43.202C29.9722 43.7951 30.2934 44.2344 30.6338 44.5292C30.9632 44.8143 31.3083 44.9608 31.7783 44.9608L31.7783 45.1612C30.7343 45.1612 30.2174 44.4947 29.3936 43.3163C28.5431 42.1004 27.4854 40.5868 25.382 40.5868C23.2794 40.5868 22.2217 42.1004 21.3716 43.3163L21.0752 43.7342C20.4107 44.6509 19.9011 45.1611 18.9881 45.1612L18.9883 44.9608C19.458 44.9608 19.8027 44.8142 20.1318 44.5292C20.4721 44.2344 20.7935 43.7953 21.208 43.202C22.0507 41.9967 23.1629 40.3867 25.3818 40.3866ZM38.1748 40.3866C40.3947 40.3866 41.5074 41.9966 42.3506 43.202C42.7652 43.7951 43.0872 44.2345 43.4277 44.5292C43.7572 44.8142 44.1022 44.9607 44.5723 44.9608L44.5727 45.1612C43.6591 45.161 43.1483 44.6509 42.4834 43.7342L42.1872 43.3163C41.3367 42.1004 40.2785 40.5868 38.1751 40.5868C36.0717 40.5868 35.014 42.1004 34.1635 43.3163C33.3398 44.4947 32.8229 45.1612 31.7783 45.1612L31.7783 44.9608C32.2486 44.9608 32.5934 44.8143 32.9229 44.5292C33.2634 44.2344 33.5852 43.7954 34 43.202C34.8431 41.9967 35.9552 40.3867 38.1748 40.3866Z" fill="black"/>
<path d="M21.2844 32C19.7416 31.9985 18.2625 31.427 17.1716 30.4109C16.0807 29.3949 15.4671 28.0172 15.4655 26.5803C15.4671 25.1432 16.0807 23.7654 17.1715 22.7492C18.2624 21.7329 19.7415 21.1611 21.2844 21.1591C23.2627 21.1591 24.8714 22.6574 24.8714 24.5C24.8714 26.3426 23.2627 27.8409 21.2844 27.8409C20.9255 27.8409 20.5812 27.708 20.3274 27.4716C20.0736 27.2352 19.931 26.9146 19.931 26.5803C19.931 26.246 20.0736 25.9253 20.3274 25.6889C20.5812 25.4525 20.9255 25.3197 21.2844 25.3197C21.5088 25.3073 21.7197 25.2156 21.8738 25.0632C22.028 24.9108 22.1139 24.7094 22.1139 24.5C22.1139 24.2906 22.028 24.0892 21.8738 23.9368C21.7197 23.7844 21.5088 23.6927 21.2844 23.6803C20.4591 23.6814 19.6681 23.9874 19.0847 24.531C18.5012 25.0747 18.1732 25.8116 18.1723 26.5803C18.1723 28.178 19.5691 29.4789 21.2844 29.4789C24.2325 29.4789 26.63 27.2459 26.63 24.5C26.63 21.7541 24.2325 19.5211 21.2844 19.5211C19.2752 19.5234 17.349 20.2679 15.9284 21.5913C14.5078 22.9147 13.7089 24.7089 13.7068 26.5803C13.7068 26.9146 13.5642 27.2352 13.3104 27.4716C13.0566 27.708 12.7124 27.8409 12.3534 27.8409C11.9945 27.8409 11.6502 27.708 11.3964 27.4716C11.1426 27.2352 11 26.9146 11 26.5803C11.0029 24.0405 12.0873 21.6055 14.0153 19.8095C15.9433 18.0134 18.5576 17.0031 21.2844 17C25.7252 17 29.3369 20.3639 29.3369 24.5C29.3369 28.6361 25.7267 32 21.2844 32ZM41.7156 32C37.2748 32 33.6631 28.6361 33.6631 24.5C33.6631 20.3639 37.2748 17 41.7156 17C44.9251 17 47.536 19.4318 47.536 22.4197C47.536 25.4076 44.9251 27.8409 41.7156 27.8409C39.7388 27.8409 38.1302 26.3426 38.1302 24.5C38.1302 22.6574 39.7388 21.1591 41.7156 21.1591C42.0745 21.1591 42.4188 21.292 42.6726 21.5284C42.9264 21.7648 43.069 22.0854 43.069 22.4197C43.069 22.754 42.9264 23.0747 42.6726 23.3111C42.4188 23.5475 42.0745 23.6803 41.7156 23.6803C41.4912 23.6927 41.2803 23.7844 41.1262 23.9368C40.972 24.0892 40.8861 24.2906 40.8861 24.5C40.8861 24.7094 40.972 24.9108 41.1262 25.0632C41.2803 25.2156 41.4912 25.3073 41.7156 25.3197C42.541 25.3186 43.3322 25.0127 43.9159 24.4691C44.4996 23.9255 44.828 23.1885 44.8292 22.4197C44.828 21.6511 44.4995 20.9142 43.9158 20.3709C43.3321 19.8275 42.5409 19.5219 41.7156 19.5211C40.2983 19.5227 38.9396 20.0477 37.9375 20.9811C36.9353 21.9145 36.3716 23.18 36.37 24.5C36.3716 25.82 36.9353 27.0855 37.9375 28.0189C38.9396 28.9523 40.2983 29.4773 41.7156 29.4789C43.7245 29.4766 45.6505 28.7323 47.071 27.4092C48.4916 26.0861 49.2907 24.2923 49.2932 22.4211C49.2932 22.0868 49.4358 21.7662 49.6896 21.5298C49.9434 21.2934 50.2876 21.1606 50.6466 21.1606C51.0055 21.1606 51.3498 21.2934 51.6036 21.5298C51.8574 21.7662 52 22.0868 52 22.4211C52.0015 27.7026 47.386 32 41.7156 32Z" fill="black"/>
</svg>
