<svg width="64" height="64" viewBox="0 0 64 64" fill="none" xmlns="http://www.w3.org/2000/svg">
<circle cx="32.0016" cy="32.0007" r="32.0007" fill="#C1A2FC"/>
<mask id="mask0_838_4213" style="mask-type:alpha" maskUnits="userSpaceOnUse" x="0" y="0" width="65" height="65">
<circle cx="32.0026" cy="32.0006" r="32.0007" fill="#94A8ED"/>
</mask>
<g mask="url(#mask0_838_4213)">
<path d="M21.5396 25.0655C10.6375 26.8177 2.80158 33.9073 0.246387 37.2331C4.33469 58.356 23.2025 64.3668 32.1254 64.7318C55.8765 62.9796 63.1932 44.128 63.8827 34.9212C57.8281 36.9157 52.3599 35.0137 48.6701 32.7533C46.3595 31.3379 44.8728 28.9863 43.5628 26.6144C39.0519 18.4467 34.9886 17.7794 32.1254 16.6699C26.65 15.0878 26.4472 17.3189 26.65 18.6167C26.942 22.997 23.3648 24.7411 21.5396 25.0655Z" fill="white"/>
<path d="M20.3229 31.514C11.5622 33.2661 5.07285 41.5725 2.92325 45.5067C8.76368 59.1344 23.4459 63.9203 30.0569 64.6097C55.3655 64.2204 63.2338 44.4927 64.0044 34.6775L61.5709 35.6509C56.7351 52.218 42.1915 57.8346 33.8947 58.8484C32.5573 59.0118 31.1677 59.0149 29.9245 58.4956C28.2316 57.7885 27.8498 56.6478 28.0671 55.5133C28.4555 53.486 30.5785 52.4286 32.4275 51.5108C40.8487 47.3307 44.5171 42.0668 45.7941 38.3169C46.4823 36.2961 46.312 32.1381 44.3842 33.0549C43.7008 33.3799 43.1349 34.637 42.8329 35.6509C37.7712 47.2345 23.6081 50.617 17.1593 50.8604C15.1007 51.0534 13.7117 50.7557 12.8009 50.1973C9.88926 48.4122 13.1307 44.5167 16.0187 42.6937L26.2119 36.2597C27.8754 35.2097 29.4936 33.997 30.4538 32.2801C33.2095 27.3525 31.796 21.9554 30.5436 19.5898C28.0128 15.6962 27.7045 18.373 27.8668 20.1982C28.2561 28.8615 23.2431 30.9299 20.3229 31.514Z" fill="#F3EDFE"/>
</g>
</svg>
