<svg width="64" height="64" viewBox="0 0 64 64" fill="none" xmlns="http://www.w3.org/2000/svg">
<path d="M64.0014 32.0007C64.0014 49.6742 49.6742 64.0014 32.0007 64.0014C14.3272 64.0014 0 49.6742 0 32.0007C0 14.3272 14.3272 0 32.0007 0C49.6742 0 64.0014 14.3272 64.0014 32.0007Z" fill="#C1A2FC"/>
<path d="M8.31035 27.5398C11.3539 33.6294 18.6541 33.3722 22.8752 31.3406C24.4194 30.5973 26.1359 29.6081 27.6979 30.3131C28.3652 30.6143 28.8055 31.0396 29.0795 31.5223C30.1954 33.4885 27.783 35.3343 26.3124 37.0514C26.1771 37.2093 26.0517 37.3663 25.9361 37.5199C25.2764 38.3966 24.8764 39.4572 24.8017 40.5517C24.6239 43.1598 25.9349 44.7981 27.7259 45.8258C32.2312 48.4108 36.6005 41.7158 40.4992 45.1479C41.7789 46.2744 44.1201 48.6627 45.7245 49.2394C52.0499 51.5133 55.2841 47.0033 56.1569 44.1554C57.5586 36.4996 51.9777 33.7167 47.9178 33.0756C46.9084 32.9162 45.905 32.4725 45.4666 31.5494C44.6051 29.735 44.6199 27.8515 44.9791 26.2625C45.4733 24.076 46.4823 21.6784 45.2482 19.8071C43.7468 17.5306 40.9869 17.172 38.489 17.5264C36.1677 17.8558 34.2351 19.738 31.8924 19.8295C30.3845 19.8884 28.8359 19.2892 27.4493 18.44C24.6856 16.7473 22.0764 14.4956 18.8496 14.1932C7.73332 13.1515 5.81798 23.594 8.31035 27.5398Z" fill="white"/>
<path d="M21.6196 17.6347C17.6528 16.2827 13.7038 17.529 11.712 18.595C11.4148 18.7541 11.036 18.6344 10.9063 18.3232C10.8236 18.1246 10.866 17.8937 11.0206 17.7442C14.59 14.2936 19.7083 15.3402 22.1834 16.4437C22.405 16.5426 22.5397 16.7651 22.5397 17.0078C22.5397 17.4722 22.0591 17.7845 21.6196 17.6347Z" fill="#EFEFF7"/>
<path d="M53.4113 44.3103C54.3432 42.1881 53.4075 40.1221 52.4878 38.938C52.2884 38.6812 52.3997 38.2814 52.7143 38.1991C52.8231 38.1706 52.9414 38.188 53.0366 38.248C56.4512 40.3985 55.4354 43.5218 54.3683 45.0217C54.2716 45.1575 54.1132 45.2317 53.9465 45.2317C53.5016 45.2317 53.2324 44.7177 53.4113 44.3103Z" fill="#EFEFF7"/>
<path d="M21.846 37.0776C21.846 38.692 20.3995 40.0008 18.6152 40.0008C16.8309 40.0008 15.3844 38.692 15.3844 37.0776C15.3844 35.4632 16.8309 34.1545 18.6152 34.1545C20.3995 34.1545 21.846 35.4632 21.846 37.0776Z" fill="white"/>
</svg>
