<svg width="64" height="64" viewBox="0 0 64 64" fill="none" xmlns="http://www.w3.org/2000/svg">
<g clip-path="url(#clip0_730_7)">
<path d="M64 32C64 49.6731 49.6731 64 32 64C14.3269 64 0 49.6731 0 32C0 14.3269 14.3269 0 32 0C49.6731 0 64 14.3269 64 32Z" fill="#DED2FA"/>
<path d="M42 36.1271C42 33.066 40.5475 29.2498 38.1572 25.2413C36.2184 21.9899 33.9025 19.0094 32 16.7725C30.0975 19.0094 27.7816 21.9899 25.8428 25.2413C23.4525 29.2499 22 33.0661 22 36.1271C22.0001 42.9167 26.9083 47.6027 32 47.6027V52.6027L31.6133 52.5969C23.6362 52.3752 17.2068 45.3136 17.0049 36.5519L17 36.1271C17 27.2911 25.0183 17.0749 29.3301 12.2197C30.7738 10.594 33.2262 10.594 34.6699 12.2197C38.9817 17.0749 47 27.2911 47 36.1271L46.9951 36.5519C46.7899 45.4548 40.155 52.6027 32 52.6027V47.6027C37.0917 47.6027 41.9999 42.9167 42 36.1271Z" fill="#9268E8"/>
</g>
<defs>
<clipPath id="clip0_730_7">
<rect width="64" height="64" fill="white"/>
</clipPath>
</defs>
</svg>
