<svg width="64" height="64" viewBox="0 0 64 64" fill="none" xmlns="http://www.w3.org/2000/svg">
<path d="M64 32C64 49.6731 49.6731 64 32 64C14.3269 64 0 49.6731 0 32C0 14.3269 14.3269 0 32 0C49.6731 0 64 14.3269 64 32Z" fill="#C1A2FC"/>
<path d="M56 32C56 45.2548 45.2548 56 32 56C18.7452 56 8 45.2548 8 32C8 18.7452 18.7452 8 32 8C45.2548 8 56 18.7452 56 32Z" fill="white"/>
<path d="M49.4268 24.8419C46.2114 16.5099 41.3358 18.1325 38.6218 23.231C35.908 28.3295 32.9835 31.9131 29.7327 28.1249C26.482 24.3366 23.0336 22.6496 19.408 24.8522C15.7824 27.0548 6.3083 40.0529 20.7768 39.508C26.7871 39.2818 29.8951 48.8694 34.3768 48.9975C38.6925 49.1208 40.396 44.6852 37.9889 39.3576C35.582 34.0302 38.4136 34.3338 43.7272 33.6331C49.0407 32.9327 51.1127 29.2102 49.4268 24.8419Z" fill="#C8C2D3"/>
<path d="M14.8159 35.2597C14.8168 35.2788 14.8178 35.2981 14.8188 35.3172C14.8652 36.1754 15.1416 37.3349 15.9725 37.6693C16.5399 37.8977 17.1348 37.5067 17.4203 36.957C17.7058 36.4073 17.7624 35.7331 17.852 35.0886C18.0063 33.9788 18.2749 32.9002 18.651 31.8805C18.933 31.1161 19.5623 30.3734 19.2072 29.4847C18.9496 28.8409 18.1934 28.4072 17.7763 28.6651C15.9266 29.8093 14.7062 32.8384 14.8159 35.2597Z" fill="#D5D0DE"/>
</svg>
