<svg width="64" height="64" viewBox="0 0 64 64" fill="none" xmlns="http://www.w3.org/2000/svg">
<path d="M64 32C64 49.6731 49.6731 64 32 64C14.3269 64 0 49.6731 0 32C0 14.3269 14.3269 0 32 0C49.6731 0 64 14.3269 64 32Z" fill="#C1A2FC"/>
<path d="M49.8049 42.3428C55.4338 32.5928 52.0927 20.1254 42.3428 14.4963C32.593 8.86749 20.126 12.208 14.4968 21.9576C8.86772 31.7075 12.2079 44.1752 21.9576 49.8045L20.0162 53.1671L19.478 52.8473C8.2877 46.0029 4.53755 31.442 11.1342 20.0162C17.8356 8.40947 32.6772 4.43267 44.2842 11.1337C55.8912 17.835 59.8687 32.6771 53.1675 44.2842L52.8473 44.8232C46.0029 56.0134 31.4419 59.7637 20.0162 53.1671L21.9576 49.8045C31.7076 55.4336 44.1758 52.0928 49.8049 42.3428Z" fill="white"/>
<path d="M42.8285 35.6125C42.8285 41.7423 37.8306 46.7114 31.6653 46.7114C25.4999 46.7114 20.502 41.7423 20.502 35.6125C20.502 28.6801 28.5958 20.4864 30.9998 18.2056C31.3779 17.8469 31.9527 17.8469 32.3308 18.2056C34.7348 20.4864 42.8285 28.6801 42.8285 35.6125Z" fill="#E9DEFF"/>
<path d="M52.8773 41.8754L50.9358 45.238L11.8446 22.6687L13.786 19.3061L52.8773 41.8754Z" fill="white"/>
</svg>
