<svg width="64" height="64" viewBox="0 0 64 64" fill="none" xmlns="http://www.w3.org/2000/svg">
<path d="M64 32C64 49.6731 49.6731 64 32 64C14.3269 64 0 49.6731 0 32C0 14.3269 14.3269 0 32 0C49.6731 0 64 14.3269 64 32Z" fill="#C1A2FC"/>
<path d="M58 32C58 46.3594 46.3594 58 32 58C17.6406 58 6 46.3594 6 32C6 17.6406 17.6406 6 32 6C46.3594 6 58 17.6406 58 32Z" fill="white"/>
<path d="M21.9606 15.3768C8.06437 29.0454 27.2791 44.3328 32.0372 32.096C35.2418 23.8539 30.7543 6.72739 21.9606 15.3768Z" fill="#FC69B0"/>
<path d="M20.2937 30.2523C18.5845 27.182 19.0437 24.7001 19.9697 23.1039C20.383 22.3913 21.3149 22.7737 21.4619 23.5843C21.7851 25.366 22.4696 27.011 23.1018 28.2049C23.5326 29.0186 23.3883 30.0575 22.6693 30.6327C21.9051 31.244 20.7698 31.1074 20.2937 30.2523Z" fill="#FFB7DA"/>
<path d="M29.6713 40.965C19.7827 52.7894 37.0918 55.0366 39.2393 46.142C40.6849 40.1512 35.9287 33.4824 29.6713 40.965Z" fill="#FC69B0"/>
<path d="M37.317 47.6684C35.5494 50.4498 33.7259 50.136 32.4691 49.2823C32.0807 49.0185 32.2237 48.4582 32.6777 48.3384C34.2168 47.9321 35.414 47.6601 36.0331 46.9962C36.2156 46.8005 36.4529 46.6439 36.7205 46.6439C37.2588 46.6439 37.6057 47.214 37.317 47.6684Z" fill="#FFB7DA"/>
<path d="M40.3411 27.3932C36.2297 38.0094 48.6223 37.4164 46.8195 30.1351C45.6053 25.2307 40.9165 20.0041 40.3411 27.3932Z" fill="#FC69B0"/>
<path d="M40.5938 31.0311C40.2299 33.2417 41.3108 33.7999 42.3413 33.8418C42.6647 33.8549 42.8228 33.49 42.6303 33.2298C42.0443 32.4378 41.5715 31.8381 41.5399 31.2593C41.5296 31.0708 41.4706 30.8775 41.321 30.7624C41.0485 30.553 40.6496 30.692 40.5938 31.0311Z" fill="#FFB7DA"/>
</svg>
