<svg width="64" height="64" viewBox="0 0 64 64" fill="none" xmlns="http://www.w3.org/2000/svg">
<path d="M64.0014 31.986C64.0014 49.6514 49.6742 63.972 32.0007 63.972C14.3272 63.972 0 49.6514 0 31.986C0 14.3206 14.3272 0 32.0007 0C49.6742 0 64.0014 14.3206 64.0014 31.986Z" fill="#C1A2FC"/>
<path d="M23.8854 26.3234C26.8252 46.1578 15.1285 53.2732 9.004 54.2424C26.2819 71.9989 52.0772 62.5126 58.6477 49.6209C45.6636 39.4588 35.8282 22.5995 32.766 15.6105C29.4587 9.36634 29.7162 2.4997 30.1756 0C23.0711 0 16.6034 3.5658 14.3577 5.35127C21.8297 5.1064 23.4998 23.7218 23.8854 26.3234Z" fill="white"/>
<path d="M35.5702 44.5052C28.9014 36.39 28.4886 22.7758 29.2743 15.6893C29.3418 15.0801 29.8259 14.4873 30.3892 14.7292C31.0266 15.0029 31.3163 15.7548 31.3879 16.2226C32.5568 20.0525 33.9211 23.2772 35.12 25.7052C36.6309 28.7651 38.4493 31.6748 39.9053 34.7613C41.3627 37.8506 42.8517 41.1876 43.8688 43.8462C44.3474 45.0972 44.7197 46.7006 43.6774 47.5418C42.8738 48.1905 41.6517 48.1602 40.4444 47.8467C38.4986 47.3415 36.8465 46.0584 35.5702 44.5052Z" fill="#C1A2FC"/>
<path d="M42.8193 49.7204C46.7262 48.6048 53.6074 50.4539 57.2586 51.8174C55.5437 54.3886 53.0783 56.4472 51.9555 57.1613C45.8385 57.3161 42.742 55.7718 41.3561 54.0992C40.1039 52.588 40.9321 50.2592 42.8193 49.7204Z" fill="#C1A2FC"/>
<path d="M32.0018 53.106C26.8572 54.4528 27.3064 40.4034 28.174 33.2104C29.1544 32.1085 29.7049 34.1797 29.8576 35.353C30.2497 37.5365 31.0623 39.5045 31.9557 41.1195C33.5289 43.9632 35.6807 47.0121 34.72 50.1167C34.0993 52.1227 32.8325 52.9463 32.0018 53.106Z" fill="#C1A2FC"/>
</svg>
