<svg width="64" height="64" viewBox="0 0 64 64" fill="none" xmlns="http://www.w3.org/2000/svg">
<path d="M64.0014 32.0007C64.0014 49.6742 49.6742 64.0014 32.0007 64.0014C14.3272 64.0014 0 49.6742 0 32.0007C0 14.3272 14.3272 0 32.0007 0C49.6742 0 64.0014 14.3272 64.0014 32.0007Z" fill="#C1A2FC"/>
<path d="M15.6794 10.9218C13.7563 11.7363 12.5777 15.3571 13.4737 18.1517C15.3706 24.069 25.9282 24.2878 25.8505 26.8522C25.7594 29.8527 11.2912 29.9963 8.93967 36.7781C8.77953 37.2399 8.33933 38.656 8.89764 40.0162C9.77859 42.163 12.638 43.2361 15.9246 43.1498C20.5812 43.0278 20.2135 52.0959 25.3603 52.9536C30.5069 53.8114 34.5509 52.0957 30.6295 44.7432C26.7082 37.3907 34.3058 36.4103 37.3693 38.2484C40.4328 40.0864 45.0894 44.9882 50.3588 44.9882C55.628 44.9882 60.6522 43.8853 58.9367 37.5131C57.2211 31.1409 49.2559 35.675 44.967 32.6115C40.678 29.548 39.085 27.5873 40.8005 24.2787C42.5161 20.9701 43.9269 13.3453 36.6341 14.9867C34.5509 15.4557 30.7521 19.3769 27.1984 16.191C25.0152 14.2338 18.6371 9.66902 15.6794 10.9218Z" fill="white"/>
<path d="M13.9643 28.0774C15.5117 26.8425 16.9053 25.2501 14.6996 23.5389C12.4939 21.8277 9.06277 25.1363 7.34707 24.4011C5.63152 23.6658 3.79338 25.7491 5.63152 27.3421C7.46965 28.9351 12.3594 29.3579 13.9643 28.0774Z" fill="white"/>
<path d="M39.3959 48.2375C37.4945 48.1065 36.7435 52.7158 39.3959 52.9756C42.0484 53.2352 43.4949 48.5196 39.3959 48.2375Z" fill="white"/>
<path d="M15.3762 12.7973C13.5322 14.4683 14.4263 19.1669 16.7831 20.6024C16.8878 20.6661 17.8665 21.2505 18.2739 20.9159C18.7343 20.5378 17.9729 19.3893 17.6409 17.5389C17.1066 14.5613 18.2313 12.8121 17.3959 12.2695C16.8674 11.9265 15.9209 12.3037 15.3762 12.7973Z" fill="#EFEFF7"/>
<path d="M28.1802 42.1696C28.2573 40.7013 28.0582 36.7778 31.6118 36.5327C35.1652 36.2876 35.7779 35.3074 34.675 34.572C33.5721 33.8367 28.3028 34.572 26.0971 38.3709C23.8912 42.1696 28.0677 44.3153 28.1802 42.1696Z" fill="#EFEFF7"/>
<path d="M53.3006 35.0624C51.7741 35.3318 51.9526 36.2877 54.526 37.3907C57.0993 38.4936 56.2415 42.1602 57.3444 40.5107C58.4474 38.8612 57.467 34.3272 53.3006 35.0624Z" fill="#EFEFF7"/>
<path d="M11.1452 24.6462C9.17281 24.944 5.50827 25.1422 6.61121 25.9358C7.714 26.7295 12.248 27.0432 13.4736 25.291C14.6991 23.5389 12.3938 24.4577 11.1452 24.6462Z" fill="#EFEFF7"/>
<path d="M26.4639 18.7949C26.7257 19.3898 28.9454 21.8278 32.254 20.3573C35.5627 18.8868 38.7379 17.6002 39.8156 19.3464C40.8932 21.0926 42.5401 16.8125 39.8156 15.854C37.091 14.8953 34.184 18.0705 32.5298 18.3409C30.8754 18.611 25.453 16.4972 26.4639 18.7949Z" fill="#EFEFF7"/>
</svg>
