<svg width="64" height="64" viewBox="0 0 64 64" fill="none" xmlns="http://www.w3.org/2000/svg">
<path d="M63.9302 31.9196C63.9302 49.5483 49.6271 63.8392 31.9833 63.8392C14.3396 63.8392 0.0364525 49.5483 0.0364525 31.9196C0.0364525 14.2909 14.3396 0 31.9833 0C49.6271 0 63.9302 14.2909 63.9302 31.9196Z" fill="#C1A2FC"/>
<path d="M27.8458 21.873C17.1934 17.1151 5.89634 20.5761 1.23296 23.1925C-3.43343 39.4512 6.5375 52.8805 12.0016 56.9054C28.1543 69.9362 46.5806 62.046 52.0848 56.6663C67.5196 43.8745 64.7676 26.0617 61.2979 19.3669C52.7988 26.1449 42.0026 26.1376 35.2732 24.8249C32.6463 24.3124 30.2893 22.9643 27.8458 21.873Z" fill="#DFCFFF"/>
<path d="M42.0439 50.0909C35.7264 59.7505 18.702 58.1407 10.9247 55.949C-0.684131 46.1459 -0.561804 32.5173 0.395406 27.0181C4.97297 22.9622 12.5007 21.8457 16.5646 21.6663C17.3555 21.6313 18.1501 21.7184 18.9036 21.9613C21.9749 22.9513 22.0424 24.1923 21.0252 25.2753C19.2753 27.1384 16.4333 27.3033 13.9921 28.0642C7.7899 29.9972 6.28624 34.0393 6.38786 36.1038C7.34507 43.5637 18.8316 44.8707 24.4552 44.5917C42.5465 43.5397 43.7191 47.8195 42.0439 50.0909Z" fill="#F1E9FF"/>
<path d="M35.0951 32.3978C49.6447 35.267 59.6228 27.4166 62.7337 23.1925C65.6053 31.6805 62.8534 43.0377 61.2979 44.7113C59.4792 38.4948 48.4553 38.9331 43.2306 40.0489C27.4366 43.0138 21.0956 38.176 19.8994 35.3865C18.5593 29.6482 29.4715 31.0031 35.0951 32.3978Z" fill="#F1E9FF"/>
<path d="M23.0031 33.1946C24.2337 32.8577 26.4149 33.0008 28.0577 33.2381L36.4329 34.4336C37.931 34.6773 38.9092 35.0603 39.5013 35.4894C40.8684 36.4799 38.885 37.7941 37.1963 37.8132C34.1477 37.8477 30.5526 37.4784 27.7584 37.0171C25.066 36.5726 20.3712 33.915 23.0031 33.1946Z" fill="#FFFFFD"/>
<path d="M38.5829 50.8516C34.1378 55.2898 25.7321 55.4721 20.9316 54.836C20.079 54.7231 19.2395 54.5027 18.4607 54.138C13.8127 51.9616 17.8828 50.162 21.3329 50.3302C26.2386 50.5693 31.9022 49.6527 34.1357 48.8956C36.2652 47.8081 37.6637 47.6303 38.5478 47.8537C39.8398 48.1801 39.5255 49.9104 38.5829 50.8516Z" fill="#FFFFFD"/>
</svg>
