<svg width="62" height="62" viewBox="0 0 62 62" fill="none" xmlns="http://www.w3.org/2000/svg">
<path d="M62 31C62 48.1208 48.1208 62 31 62C13.8792 62 0 48.1208 0 31C0 13.8792 13.8792 0 31 0C48.1208 0 62 13.8792 62 31Z" fill="#DED2FA"/>
<path d="M38 35.7529C37.9999 32.692 36.5474 28.8756 34.1572 24.8672C32.2184 21.6158 29.9024 18.6353 28 16.3984C26.0976 18.6353 23.7816 21.6158 21.8428 24.8672C19.4526 28.8756 18.0001 32.692 18 35.7529C18 42.5426 22.9082 47.2285 28 47.2285V52.2285C19.7157 52.2285 13 44.8522 13 35.7529C13.0003 26.917 21.0184 16.7007 25.3301 11.8457C26.7738 10.2202 29.2262 10.2202 30.6699 11.8457C34.9816 16.7007 42.9997 26.917 43 35.7529C43 44.8522 36.2843 52.2285 28 52.2285V47.2285C33.0918 47.2285 38 42.5426 38 35.7529Z" fill="#9268E8"/>
<path d="M55 35.7948C55 42.1095 50.299 47.2285 44.5 47.2285C38.701 47.2285 34 42.1095 34 35.7948C34 30.5158 38.1598 24.5267 41.2429 20.8129C42.9682 18.7347 46.0318 18.7347 47.7571 20.8129C50.8402 24.5267 55 30.5157 55 35.7948Z" fill="#9467E8"/>
</svg>
