<svg width="62" height="62" viewBox="0 0 62 62" fill="none" xmlns="http://www.w3.org/2000/svg">
<circle cx="31" cy="31" r="30.5" fill="#DED2FA"/>
<path d="M41 35.7537C41 32.6927 39.5475 28.8765 37.1572 24.8679C35.2184 21.6165 32.9025 18.636 31 16.3991C29.0975 18.636 26.7816 21.6165 24.8428 24.8679C22.4525 28.8765 21 32.6927 21 35.7537C21.0001 42.5433 25.9083 47.2294 31 47.2294V52.2294L30.6133 52.2235C22.6362 52.0018 16.2068 44.9403 16.0049 36.1785L16 35.7537C16 26.9178 24.0183 16.7015 28.3301 11.8464C29.7738 10.2206 32.2262 10.2207 33.6699 11.8464C37.9817 16.7015 46 26.9177 46 35.7537L45.9951 36.1785C45.7899 45.0814 39.155 52.2294 31 52.2294V47.2294C36.0917 47.2294 40.9999 42.5433 41 35.7537Z" fill="#9268E8"/>
</svg>
