<svg width="62" height="62" viewBox="0 0 62 62" fill="none" xmlns="http://www.w3.org/2000/svg">
<path d="M62 31C62 48.1208 48.1208 62 31 62C13.8792 62 0 48.1208 0 31C0 13.8792 13.8792 0 31 0C48.1208 0 62 13.8792 62 31Z" fill="#DED2FA"/>
<path d="M53.3028 20.0103C49.3922 10.0119 43.4625 11.959 40.1616 18.0772C36.8611 24.1954 33.3042 28.4957 29.3506 23.9498C25.397 19.404 21.203 17.3796 16.7935 20.0227C12.384 22.6658 0.861448 38.2635 18.4583 37.6096C25.7681 37.3381 29.5481 48.8433 34.9988 48.997C40.2476 49.1449 42.3195 43.8222 39.3919 37.4291C36.4646 31.0362 39.9084 31.4005 46.3709 30.5597C52.8333 29.7192 55.3533 25.2522 53.3028 20.0103Z" fill="#9063E2"/>
</svg>
