<svg width="62" height="62" viewBox="0 0 62 62" fill="none" xmlns="http://www.w3.org/2000/svg">
<circle cx="31" cy="31" r="31" fill="#DED2FA"/>
<path d="M27.1992 13.5059C27.6484 13.0001 28.3516 13.0001 28.8008 13.5059C30.9019 15.8717 33.8726 19.5083 36.3047 23.5869C38.7715 27.7238 40.4999 32.0135 40.5 35.7529C40.5 43.6974 34.6881 49.7285 28 49.7285C21.3119 49.7285 15.5 43.6974 15.5 35.7529C15.5001 32.0135 17.2285 27.7238 19.6953 23.5869C22.1274 19.5083 25.0981 15.8717 27.1992 13.5059Z" stroke="#9268E8" stroke-width="5"/>
<path d="M42.3975 21.7715C43.5229 20.4158 45.4771 20.4158 46.6025 21.7715C48.1092 23.5864 49.8548 25.9288 51.2168 28.4336C52.5914 30.9617 53.5 33.5184 53.5 35.7949C53.5 41.404 49.3529 45.7285 44.5 45.7285C39.6471 45.7285 35.5 41.404 35.5 35.7949C35.5 33.5184 36.4086 30.9617 37.7832 28.4336C39.1452 25.9288 40.8908 23.5864 42.3975 21.7715Z" fill="#9467E8" stroke="#DED2FA" stroke-width="3"/>
</svg>
