<svg width="64" height="64" viewBox="0 0 64 64" fill="none" xmlns="http://www.w3.org/2000/svg">
<path d="M32 64C49.6731 64 64 49.6731 64 32C64 14.3269 49.6731 0 32 0C14.3269 0 0 14.3269 0 32C0 49.6731 14.3269 64 32 64Z" fill="#F9DC30"/>
<path d="M21.253 11.7715C26.5131 11.7715 30.325 16.8308 30.325 21.9386C30.325 27.0463 26.5131 30.801 21.253 30.801C15.9929 30.801 12.0273 27.0463 12.0273 21.9386C12.0278 16.8312 15.9933 11.7715 21.253 11.7715Z" fill="white"/>
<path d="M25.5731 23.4838C26.7857 23.4838 27.7688 22.5007 27.7688 21.288C27.7688 20.0754 26.7857 19.0923 25.5731 19.0923C24.3604 19.0923 23.3774 20.0754 23.3774 21.288C23.3774 22.5007 24.3604 23.4838 25.5731 23.4838Z" fill="black"/>
<path d="M42.9522 9.97852C48.2123 9.97852 52.0242 15.0383 52.0242 20.1456C52.0242 25.2534 48.2123 29.0081 42.9522 29.0081C37.6921 29.0081 33.7266 25.2534 33.7266 20.1456C33.727 15.0378 37.6926 9.97852 42.9522 9.97852Z" fill="white"/>
<path d="M47.2664 21.6878C48.479 21.6878 49.4621 20.7048 49.4621 19.4921C49.4621 18.2794 48.479 17.2964 47.2664 17.2964C46.0537 17.2964 45.0707 18.2794 45.0707 19.4921C45.0707 20.7048 46.0537 21.6878 47.2664 21.6878Z" fill="black"/>
<path d="M48.451 6.66628C48.1999 6.66628 47.9469 6.58394 47.7356 6.41423C46.216 5.19423 44.2256 4.93806 42.8231 4.93806C41.4211 4.93806 39.4303 5.19423 37.9107 6.41423C37.4184 6.80991 36.6984 6.73078 36.3027 6.23857C35.9071 5.74591 35.9862 5.02634 36.4784 4.63066C38.0918 3.33518 40.2857 2.65039 42.8231 2.65039C45.3605 2.65039 47.5544 3.33473 49.1678 4.63066C49.66 5.02589 49.7391 5.74591 49.3434 6.23857C49.1175 6.52035 48.7854 6.66628 48.451 6.66628Z" fill="black"/>
<path d="M38.7133 51.6559C38.4507 51.6559 38.1872 51.5663 37.9722 51.3828C37.4924 50.9734 37.4338 50.2539 37.8418 49.7731C38.0536 49.5233 43.1308 43.6562 51.9077 42.8117C52.5362 42.7527 53.0952 43.212 53.1556 43.8405C53.216 44.4691 52.7553 45.0281 52.1268 45.088C44.3032 45.8414 39.6305 51.2008 39.5838 51.2552C39.3569 51.5201 39.0358 51.6559 38.7133 51.6559Z" fill="black"/>
</svg>
